<?xml version="1.0" standalone="no"?> <!DOCTYPE svg PUBLIC "-//W3C//DTD SVG 20010904//EN" "http://www.w3.org/TR/2001/REC-SVG-20010904/DTD/svg10.dtd"> <svg version="1.0" xmlns="http://www.w3.org/2000/svg" width="512.000000pt" height="512.000000pt" viewBox="0 0 512.000000 512.000000" preserveAspectRatio="xMidYMid meet"> <g transform="translate(0.000000,512.000000) scale(0.100000,-0.100000)" fill="#f2020e" stroke="none"> <path d="M2255 4916 c-22 -7 -51 -18 -65 -26 -22 -11 -980 -591 -1255 -760 -60 -37 -242 -148 -404 -246 -161 -98 -301 -189 -309 -202 -9 -13 -15 -38 -15 -55 4 -146 20 -189 76 -211 18 -7 80 -21 140 -31 l107 -18 0 -261 c0 -144 3 -304 6 -357 l7 -95 -46 -18 c-105 -40 -199 -167 -213 -287 -11 -92 15 -160 88 -233 l61 -60 -7 -82 c-18 -244 -105 -498 -240 -704 -106 -161 -98 -179 142 -329 97 -60 189 -114 203 -120 32 -12 93 1 119 24 26 24 123 226 154 320 97 301 108 615 31 878 -14 49 -14 49 15 73 16 14 43 52 59 86 39 77 42 166 10 255 -37 101 -163 203 -251 203 -21 0 -19 -35 -27 372 -5 280 -4 317 9 313 8 -2 69 -13 135 -25 65 -11 121 -22 123 -24 1 -2 30 -149 63 -327 150 -814 171 -928 185 -983 16 -60 52 -140 85 -187 l18 -26 -49 -23 c-103 -48 -180 -151 -217 -290 -20 -78 -22 -301 -4 -425 30 -195 111 -434 198 -585 21 -35 67 -94 103 -130 84 -86 156 -122 260 -128 67 -4 90 0 205 36 594 185 1075 326 1105 324 49 -3 528 85 554 101 18 11 114 11 606 -4 393 -12 599 -15 628 -8 105 23 177 85 240 207 140 270 146 594 16 924 -67 171 -170 363 -218 405 -83 73 -196 95 -313 59 -46 -14 -61 -23 -60 -36 1 -10 7 -16 14 -13 7 3 10 10 6 16 -4 6 0 8 9 4 9 -3 20 -1 26 5 16 16 186 14 222 -3 3 -1 10 -3 17 -3 6 -1 23 -14 37 -29 14 -15 30 -27 36 -27 5 0 10 -7 10 -16 0 -8 4 -13 9 -10 4 3 14 -7 21 -22 18 -37 19 -44 3 -69 -7 -12 -13 -26 -13 -30 0 -4 5 0 11 9 5 10 17 15 27 12 14 -5 14 -4 2 5 -8 5 -11 13 -7 18 14 13 27 -20 14 -36 -10 -12 -9 -14 8 -7 11 4 16 4 12 0 -3 -4 4 -28 18 -53 60 -115 109 -237 100 -251 -3 -5 1 -13 9 -17 9 -5 17 -24 18 -43 2 -19 6 -37 9 -40 18 -14 38 -203 35 -325 -4 -140 -12 -188 -52 -305 -27 -80 -41 -103 -55 -94 -5 3 -6 -2 -3 -11 4 -8 2 -21 -4 -28 -6 -6 -11 -16 -12 -22 -1 -5 -4 -12 -7 -15 -4 -3 -3 1 1 8 4 6 3 12 -2 12 -5 0 -12 -9 -15 -20 -3 -13 -1 -18 6 -14 7 4 -10 -14 -38 -40 -27 -25 -55 -46 -62 -46 -7 0 -13 -3 -13 -8 0 -4 -24 -13 -54 -20 -62 -14 -516 -5 -481 10 13 5 7 5 -15 1 -59 -11 -516 -2 -564 12 -23 6 -27 5 -21 -5 6 -9 4 -11 -4 -5 -7 4 -42 7 -77 6 -37 0 -63 3 -59 8 3 5 0 13 -6 17 -7 4 -9 3 -6 -3 4 -5 -5 -20 -18 -31 -29 -25 -31 -22 -9 16 11 18 12 22 2 10 -8 -10 -18 -14 -22 -10 -4 4 -7 2 -6 -3 5 -25 -3 -34 -40 -40 -22 -4 -52 -9 -68 -12 -15 -3 -51 -7 -79 -10 -29 -3 -53 -8 -53 -13 0 -4 -16 -6 -35 -4 -20 1 -33 -2 -29 -7 8 -13 -10 -11 -25 3 -11 10 -13 10 -7 1 5 -9 -2 -13 -23 -13 -16 0 -42 -5 -58 -11 -15 -6 -56 -10 -90 -10 -37 0 -76 -6 -100 -16 -21 -9 -40 -17 -43 -18 -3 -1 -21 -4 -40 -8 -85 -18 -119 -30 -113 -40 3 -5 1 -7 -5 -3 -6 3 -36 -3 -66 -15 -31 -11 -60 -18 -65 -15 -5 4 -11 1 -13 -5 -2 -6 -17 -12 -33 -13 -17 -1 -39 -7 -50 -13 -17 -9 -76 -25 -90 -24 -2 0 -21 -7 -40 -15 -20 -8 -41 -12 -47 -8 -7 4 -8 3 -4 -4 5 -8 -1 -13 -16 -14 -37 -2 -42 -3 -66 -17 -13 -7 -26 -10 -29 -7 -3 3 -15 0 -26 -6 -11 -6 -52 -19 -91 -29 -39 -10 -105 -30 -146 -44 -41 -15 -80 -27 -87 -28 -7 0 -10 -4 -7 -8 2 -4 -16 -6 -41 -5 -26 1 -48 -1 -51 -6 -3 -5 -24 -6 -47 -2 -23 3 -50 6 -59 5 -10 0 -18 4 -18 10 0 5 -6 9 -14 9 -8 0 -22 7 -30 16 -9 8 -16 11 -16 5 0 -6 -7 -8 -16 -4 -13 5 -13 7 -2 14 9 6 7 9 -9 9 -12 0 -27 8 -32 17 -6 10 -11 14 -11 10 0 -12 -53 52 -67 82 l-13 26 6 -25 c6 -24 6 -24 -9 -5 -10 13 -12 24 -6 32 7 7 6 13 -1 18 -5 3 -10 3 -10 -1 0 -4 -9 1 -20 11 -11 10 -17 21 -15 25 3 4 -2 13 -10 20 -7 6 -11 19 -8 27 4 10 2 14 -4 10 -13 -8 -47 78 -39 98 3 9 0 12 -10 8 -9 -3 -14 1 -14 13 0 9 -8 26 -17 37 -13 15 -14 18 -3 12 12 -7 13 -6 4 6 -6 8 -14 23 -16 34 -3 11 -9 29 -13 40 -5 16 -5 17 4 5 6 -8 11 -11 11 -6 0 5 -7 17 -16 27 -9 10 -17 36 -17 57 -1 22 -6 37 -11 34 -5 -3 -7 5 -4 16 4 12 2 22 -2 22 -4 0 -11 24 -15 53 -4 28 -8 59 -10 67 -13 80 -15 114 -4 100 9 -12 9 -11 2 5 -8 19 -8 202 -1 255 12 81 22 109 42 119 12 7 14 10 4 7 -24 -7 -23 6 2 22 11 7 20 19 20 27 0 18 11 19 30 3 12 -11 12 -10 3 2 -9 12 -7 21 7 40 11 14 20 30 20 35 0 6 -10 -5 -21 -23 -12 -17 -25 -32 -31 -32 -5 0 -2 7 6 16 9 8 21 25 27 36 6 11 16 17 24 14 7 -2 15 4 18 16 3 11 10 17 16 13 6 -3 8 -11 5 -17 -4 -7 -2 -8 4 -4 6 4 9 13 5 21 -4 11 2 15 23 15 23 0 26 2 14 10 -12 8 -11 10 8 10 12 0 25 7 28 15 4 8 11 12 18 8 6 -4 3 6 -8 21 -11 18 -13 26 -5 21 8 -4 3 2 -9 15 -16 15 -22 30 -19 46 3 20 2 22 -9 13 -11 -9 -14 -8 -14 5 0 9 -9 35 -21 57 -11 23 -18 43 -16 45 3 3 -1 25 -9 50 -7 24 -10 44 -7 44 3 0 1 6 -5 13 -6 6 -13 35 -16 64 -3 28 -10 71 -15 95 -6 24 -13 58 -16 77 -3 19 -8 38 -11 42 -3 5 3 21 12 36 15 27 15 27 -1 8 -17 -20 -17 -20 -13 7 3 15 1 29 -3 30 -5 2 -11 21 -14 43 -6 44 -12 79 -15 83 -2 1 -4 14 -5 30 -2 15 -8 52 -14 82 -6 30 -14 68 -17 84 -3 15 -6 45 -7 66 -1 21 -5 36 -10 33 -4 -2 -7 7 -7 20 0 20 -34 205 -68 374 -7 31 -5 46 5 57 7 9 8 11 1 6 -16 -14 -31 -13 -22 2 4 7 3 8 -5 4 -6 -4 -8 -12 -5 -18 4 -7 2 -8 -5 -4 -7 4 -9 17 -6 29 5 20 5 20 -5 4 -8 -13 -19 -17 -38 -13 -155 32 -228 40 -236 28 -4 -6 -14 -9 -24 -6 -10 4 -13 3 -6 -3 11 -8 25 -75 15 -68 -3 2 -3 -112 0 -253 4 -142 7 -283 8 -315 1 -55 2 -58 34 -71 45 -20 70 -30 82 -31 23 -3 64 -29 59 -36 -3 -5 0 -9 6 -9 7 0 27 -17 45 -37 27 -30 31 -41 22 -52 -9 -12 -9 -13 0 -8 8 5 18 -5 28 -29 18 -44 18 -47 3 -38 -10 6 -10 4 -2 -7 19 -24 25 -67 11 -72 -6 -3 -7 -6 -2 -6 14 -1 6 -81 -7 -81 -6 0 -8 -6 -5 -14 3 -8 -5 -24 -18 -36 -14 -13 -22 -26 -20 -30 9 -14 -27 -20 -43 -8 -13 11 -14 10 -4 -7 7 -14 7 -26 0 -39 -6 -10 -7 -33 -2 -54 4 -20 7 -40 6 -44 -1 -5 3 -8 9 -8 8 0 7 -6 -2 -17 -9 -11 -10 -14 -2 -9 9 5 12 -1 9 -23 -2 -17 0 -29 4 -26 6 4 10 -27 12 -107 1 -15 5 -25 9 -22 8 4 5 -200 -5 -346 -3 -60 -15 -92 -29 -84 -9 5 -9 4 -1 -5 13 -14 1 -86 -18 -108 -7 -9 -7 -13 0 -13 6 0 4 -16 -6 -39 -9 -22 -20 -37 -25 -34 -4 2 -5 -7 -1 -21 4 -17 2 -26 -6 -26 -6 0 -9 -3 -6 -8 2 -4 -12 -41 -31 -82 -20 -41 -37 -79 -37 -85 -1 -5 -7 -10 -15 -10 -8 0 -16 -7 -18 -15 -4 -13 -3 -13 6 0 6 8 11 10 11 5 0 -6 -14 -26 -31 -45 -17 -19 -27 -28 -23 -20 6 11 3 11 -12 -2 -21 -18 -64 -18 -86 -1 -7 6 -17 12 -23 13 -24 6 -34 13 -29 21 3 5 -2 9 -10 9 -13 0 -71 33 -102 59 -6 5 -20 12 -32 15 -12 4 -20 11 -17 16 3 5 0 12 -6 16 -8 4 -9 3 -5 -4 4 -7 2 -12 -5 -12 -6 0 -9 8 -6 20 3 11 1 23 -4 26 -5 3 -8 2 -7 -3 3 -8 -5 -13 -22 -13 -5 0 -27 18 -50 41 -39 40 -51 57 -29 44 5 -4 19 1 30 11 17 16 19 16 19 1 0 -10 8 -17 21 -17 11 0 17 -5 14 -10 -3 -5 -1 -10 5 -10 6 0 8 -4 5 -10 -3 -6 1 -7 9 -4 9 3 16 1 16 -6 0 -6 4 -8 10 -5 5 3 22 -7 37 -22 14 -15 23 -22 19 -15 -4 6 -2 12 3 12 6 0 11 -4 11 -10 0 -5 6 -10 14 -10 10 0 13 -8 11 -22 -3 -16 -2 -19 7 -10 8 8 15 7 25 -6 9 -10 12 -11 7 -2 -7 13 -6 13 12 0 10 -8 25 -23 33 -33 7 -10 19 -16 27 -13 7 3 19 0 26 -7 17 -16 48 -21 48 -7 0 5 6 10 14 10 13 0 30 34 27 53 -1 5 3 6 9 2 5 -3 10 -1 10 6 0 14 51 132 61 139 3 3 12 29 19 58 9 35 19 52 29 52 11 0 12 3 4 8 -11 7 -4 66 15 112 8 20 9 30 11 63 0 16 5 26 10 23 4 -3 7 90 5 207 -3 231 -5 256 -18 275 -4 7 -5 25 -2 40 5 21 4 24 -4 12 -9 -13 -11 -12 -9 5 4 40 -21 77 -60 90 -18 5 -22 4 -16 -6 6 -9 3 -11 -8 -6 -10 3 -17 3 -17 -1 0 -4 -22 -7 -49 -7 -27 0 -48 3 -46 6 2 3 -2 6 -10 6 -8 0 -17 -9 -21 -19 -3 -10 -9 -18 -14 -18 -4 0 -6 -9 -3 -20 3 -11 1 -20 -5 -20 -5 0 -9 -15 -7 -33 6 -66 -38 -283 -55 -272 -6 4 -6 -3 -2 -16 5 -13 4 -32 -2 -46 -13 -27 -23 -29 -28 -6 -3 15 -5 14 -10 -5 -3 -12 -3 -20 2 -17 20 12 17 -31 -5 -81 -14 -31 -25 -63 -25 -70 0 -8 -4 -14 -10 -14 -5 0 -10 -6 -10 -14 0 -8 -7 -22 -16 -30 -8 -9 -12 -20 -9 -26 3 -5 2 -10 -3 -10 -6 0 -17 -18 -26 -40 -9 -22 -18 -40 -22 -40 -3 0 -2 5 2 12 4 7 3 8 -4 4 -6 -4 -9 -13 -6 -21 4 -8 -1 -18 -10 -21 -9 -3 -14 -9 -12 -13 2 -3 -2 -14 -9 -24 -12 -17 -15 -17 -44 -2 -30 15 -31 16 -15 40 9 14 18 25 19 25 6 0 0 -25 -10 -40 -7 -13 -6 -13 7 -2 9 7 15 21 13 30 -4 25 6 36 17 21 7 -10 8 -9 4 5 -4 12 5 37 26 69 34 53 78 152 78 175 0 7 4 11 9 8 5 -3 9 0 8 7 -1 32 4 48 13 42 5 -3 9 2 8 12 -3 37 2 54 14 47 6 -4 8 -3 5 4 -4 5 5 54 19 109 15 54 26 111 26 128 0 17 2 24 7 17 4 -7 7 16 6 50 -2 52 2 68 19 88 14 17 15 20 3 11 -9 -8 -21 -10 -25 -6 -4 4 -1 10 6 12 8 3 5 11 -10 25 -13 11 -17 17 -10 13 6 -3 12 -1 12 4 0 6 -7 11 -16 11 -8 0 -12 4 -9 10 4 6 -1 7 -11 3 -11 -4 -15 -2 -11 4 4 6 -2 13 -13 16 -11 3 -19 11 -18 19 2 7 -2 12 -9 11 -7 -2 -18 7 -24 20 -11 20 -11 21 5 8 14 -12 16 -12 10 3 -3 9 -11 16 -18 16 -6 0 -4 5 4 10 13 8 12 10 -3 10 -10 0 -16 4 -12 9 3 5 1 12 -3 15 -12 7 -13 94 -1 102 5 3 9 11 9 17 0 7 -4 6 -11 -3 -9 -12 -10 -11 -4 5 4 11 9 30 11 43 6 32 39 83 48 74 4 -4 7 -2 6 3 -1 6 -2 15 -1 21 1 13 65 64 84 68 27 6 47 19 41 27 -3 5 4 9 14 9 43 0 44 11 40 394 -1 200 -5 363 -7 361 -2 -2 -13 5 -24 16 -14 13 -23 15 -28 8 -4 -8 -8 -8 -13 -1 -4 6 -14 8 -23 5 -10 -4 -14 -2 -10 4 4 6 -4 8 -21 6 -21 -4 -24 -2 -12 6 9 7 10 11 3 11 -6 0 -15 -4 -18 -10 -3 -5 -12 -10 -18 -10 -7 0 -6 4 3 11 12 8 8 9 -16 5 -20 -3 -39 1 -54 11 -22 16 -23 16 -16 -3 5 -13 -3 -10 -25 12 -17 18 -33 45 -35 60 -15 136 -15 154 -1 154 8 0 18 7 21 16 6 15 4 15 -11 3 -16 -13 -17 -12 -5 3 7 9 22 15 33 13 11 -2 17 0 14 5 -4 7 62 53 75 52 3 0 13 7 23 15 9 9 17 13 17 9 0 -4 15 4 33 18 49 40 51 41 67 41 8 0 14 5 13 12 -2 8 4 10 14 6 11 -5 14 -3 8 6 -6 10 -3 11 14 2 18 -10 20 -9 14 6 -5 13 -3 15 12 9 11 -4 16 -4 12 0 -9 9 22 44 40 44 7 0 13 5 13 11 0 5 4 8 9 4 5 -3 12 -1 16 5 3 5 11 10 16 10 6 0 7 -5 3 -12 -4 -7 -3 -8 5 -4 6 4 9 11 6 16 -3 5 14 19 37 31 24 12 48 28 54 36 5 8 22 16 36 16 16 1 24 7 21 15 -5 11 8 17 30 13 4 0 7 4 7 10 0 6 7 9 15 5 8 -3 14 0 12 7 -1 7 7 11 20 10 13 -2 22 2 20 9 -1 6 9 15 23 19 14 4 18 8 10 8 -8 1 7 13 33 26 52 27 61 30 53 17 -2 -4 6 -8 19 -8 19 0 22 4 19 23 -4 20 3 27 38 43 40 18 44 18 63 2 13 -11 11 -6 -5 12 l-25 29 25 -14 c14 -7 31 -13 39 -14 8 0 16 -6 19 -13 2 -7 0 -12 -5 -10 -4 1 -18 -3 -29 -10 -12 -6 -25 -8 -29 -4 -5 4 -5 1 -1 -5 5 -8 -5 -19 -28 -30 -20 -9 -36 -20 -36 -24 0 -4 -10 -6 -21 -4 -12 3 -19 1 -15 -2 4 -4 -20 -24 -53 -45 -64 -41 -76 -45 -65 -25 4 7 3 9 -2 4 -5 -5 -9 -14 -9 -19 0 -16 -64 -50 -77 -42 -6 4 -8 2 -4 -4 3 -6 -3 -13 -14 -17 -12 -4 -17 -11 -13 -18 4 -7 -1 -6 -10 2 -15 12 -20 11 -37 -4 -11 -10 -18 -21 -15 -25 2 -3 -11 -13 -30 -20 -19 -8 -35 -17 -35 -22 0 -4 -9 -8 -21 -8 -13 0 -18 -4 -13 -12 5 -8 2 -9 -10 -5 -10 4 -20 7 -22 7 -3 0 -2 5 2 12 5 7 3 8 -5 4 -9 -6 -8 -13 6 -29 10 -11 12 -17 5 -13 -8 5 -21 2 -30 -7 -9 -8 -28 -20 -41 -27 -19 -10 -22 -10 -16 2 3 7 -1 4 -10 -7 -9 -11 -21 -19 -26 -17 -6 1 -7 -3 -3 -9 5 -9 2 -10 -10 -6 -9 4 -14 3 -11 -2 3 -5 1 -12 -5 -16 -5 -3 -10 -1 -10 6 0 9 -4 8 -12 -2 -31 -36 -174 -123 -188 -114 -5 3 -12 0 -16 -6 -4 -8 -3 -9 4 -5 19 11 14 -5 -5 -20 -16 -11 -16 -14 -3 -27 22 -21 75 -36 154 -44 50 -4 65 -9 51 -14 -12 -5 -5 -6 19 -2 22 3 36 2 33 -3 -6 -10 75 -10 92 0 6 4 16 4 21 1 6 -3 17 1 26 9 9 9 20 14 25 11 4 -3 21 1 36 8 15 8 46 18 68 22 22 5 42 9 45 10 3 0 15 6 27 13 12 6 37 13 56 14 20 2 33 5 31 8 -5 4 94 36 146 46 14 3 32 8 40 12 20 8 49 13 82 15 14 1 26 6 25 10 -3 11 90 47 130 50 17 1 29 5 26 10 -2 4 0 7 6 7 5 0 12 -6 14 -12 3 -8 6 -5 6 6 1 11 6 16 15 13 7 -3 17 -2 22 3 15 15 135 49 152 43 10 -4 13 -2 8 5 -4 7 4 14 21 18 15 3 52 14 82 25 30 10 58 16 63 13 4 -3 8 0 8 5 0 6 5 11 11 11 5 0 7 -4 4 -10 -3 -6 1 -7 9 -4 9 3 13 11 10 16 -4 6 -1 8 7 6 8 -3 26 1 40 8 14 7 49 16 77 20 32 4 49 11 45 17 -4 7 0 8 12 4 9 -4 23 -3 29 2 15 12 75 30 107 33 18 1 25 7 22 15 -3 8 0 13 8 11 9 -2 13 5 11 19 -2 12 2 24 8 28 5 3 10 14 10 24 0 19 56 96 70 96 5 0 12 4 17 9 5 5 3 6 -4 2 -7 -4 -13 -3 -13 2 0 13 29 24 43 15 6 -4 8 0 4 11 -5 14 -3 15 12 6 14 -7 22 -5 32 8 13 16 12 16 -6 3 -19 -14 -19 -14 -5 2 9 9 29 19 45 21 133 16 150 17 135 6 -12 -10 -11 -11 9 -6 27 6 126 -18 147 -35 8 -6 29 -19 47 -29 32 -17 40 -35 25 -56 -6 -8 1 -11 23 -9 27 2 33 -2 47 -34 18 -43 18 -128 -1 -147 -4 -4 -7 -16 -7 -26 0 -10 -11 -23 -24 -30 -14 -6 -28 -18 -31 -26 -5 -14 -4 -14 13 -1 10 8 7 4 -8 -9 -56 -51 -66 -59 -95 -69 -16 -6 -39 -14 -50 -19 -11 -4 -27 -9 -35 -12 -34 -11 -196 -6 -219 7 -20 11 -22 11 -15 -1 4 -7 -2 -5 -13 5 -11 9 -23 14 -28 10 -4 -5 -4 -2 0 6 6 11 4 13 -9 8 -13 -5 -17 -3 -13 7 4 10 1 13 -7 10 -12 -5 -78 54 -74 66 1 3 -11 18 -27 34 -18 18 -31 24 -33 17 -3 -8 -9 -6 -18 6 -8 10 -13 12 -12 5 3 -15 -99 -52 -147 -52 -24 0 -27 -2 -15 -11 11 -8 5 -9 -25 -4 -31 4 -37 3 -25 -5 12 -9 10 -11 -12 -7 -15 2 -25 0 -22 -4 3 -5 -3 -10 -13 -11 -33 -2 -38 -3 -50 -11 -13 -8 -107 -38 -130 -41 -7 -1 -16 -5 -19 -9 -4 -4 -18 -7 -30 -7 -13 0 -26 -5 -29 -11 -4 -6 -14 -8 -22 -5 -8 3 -12 2 -9 -2 7 -11 -90 -36 -137 -35 -34 0 -35 -1 -20 -14 10 -8 12 -12 5 -8 -7 4 -24 0 -37 -9 -13 -9 -28 -16 -32 -16 -4 0 -2 4 6 9 10 7 7 9 -12 8 -14 -1 -23 -5 -21 -8 6 -10 -106 -50 -118 -42 -7 4 -8 1 -3 -7 5 -8 3 -11 -6 -8 -8 3 -31 -1 -51 -9 -21 -9 -45 -12 -53 -9 -9 3 -13 2 -10 -4 5 -8 -13 -15 -95 -38 -21 -5 -42 -6 -60 -1 -8 2 -14 -1 -13 -8 2 -7 -15 -17 -36 -23 -22 -6 -50 -19 -62 -29 l-24 -19 35 -15 c19 -9 141 -34 270 -56 129 -23 267 -47 305 -55 39 -8 104 -20 145 -27 41 -6 80 -15 86 -20 6 -5 14 -6 17 -3 3 3 35 -1 71 -11 37 -9 71 -13 78 -9 6 4 8 3 5 -3 -4 -6 4 -13 18 -15 13 -3 22 -1 19 3 -3 5 -4 9 -2 9 10 0 145 -25 233 -44 118 -24 149 -29 170 -27 17 2 17 0 5 -8 -20 -14 -4 -14 22 0 15 8 19 8 14 0 -8 -12 -9 -12 54 -17 25 -2 52 -4 60 -5 8 -1 44 -8 80 -16 119 -27 269 -15 301 23 15 18 35 19 23 1 -5 -7 2 -1 15 13 13 14 20 18 16 10 -5 -8 5 -3 21 11 44 41 107 76 124 71 8 -3 12 -1 8 3 -10 10 22 34 45 35 11 0 15 4 11 12 -5 8 -2 9 10 5 10 -4 15 -3 11 3 -6 9 8 14 28 11 5 -1 5 4 1 10 -5 9 -2 10 9 6 11 -4 14 -2 10 9 -4 10 0 12 13 7 13 -5 15 -3 9 7 -5 8 -4 11 3 6 6 -3 18 1 26 10 9 8 16 13 16 9 0 -3 10 1 23 10 13 8 27 12 32 8 4 -5 5 -3 2 3 -8 13 86 67 98 56 5 -4 5 -2 2 4 -4 7 3 14 18 18 14 4 25 11 25 16 0 11 75 52 82 44 3 -2 11 4 19 13 13 17 13 17 -5 3 -11 -8 -17 -10 -13 -3 11 18 68 44 80 36 5 -3 8 -2 5 3 -3 5 4 18 15 29 11 11 16 13 12 5 -6 -12 -5 -13 6 -2 16 15 33 16 23 0 -5 -7 -3 -8 5 -4 7 5 10 10 7 13 -8 8 15 26 79 59 33 17 59 36 58 42 -2 7 4 9 14 5 12 -5 14 -3 8 7 -6 9 -4 11 5 5 7 -4 16 -2 20 5 5 7 17 14 28 15 11 0 35 16 53 34 18 19 35 29 37 23 2 -6 10 -4 21 6 47 45 62 52 80 43 13 -7 18 -6 18 4 0 8 -4 12 -9 9 -4 -3 -8 -2 -8 1 0 3 24 17 53 30 28 14 45 25 37 26 -8 0 -4 5 10 10 14 6 32 8 41 6 8 -2 16 2 16 9 0 7 -5 10 -10 7 -6 -3 -7 -1 -3 6 4 7 13 10 19 8 7 -2 17 1 24 7 36 32 44 36 55 30 6 -4 8 -3 5 3 -8 13 20 26 35 16 6 -3 8 -1 4 5 -3 6 -2 13 4 17 5 3 10 1 10 -6 0 -6 11 -1 24 12 32 32 54 49 62 49 4 0 22 11 41 26 18 14 33 22 33 18 0 -4 6 0 13 11 9 11 19 15 27 10 9 -5 11 -4 6 3 -5 8 1 12 14 12 12 0 18 4 15 10 -3 6 1 7 9 4 9 -3 13 -10 10 -15 -3 -5 1 -9 8 -9 11 0 10 -2 0 -9 -11 -7 -11 -9 0 -13 9 -4 13 5 14 29 0 19 -2 29 -6 22 -4 -6 -10 -7 -13 -3 -2 5 11 19 30 31 19 13 32 19 29 15 -3 -5 5 -8 17 -7 13 1 21 8 19 17 -1 8 7 23 17 32 21 19 18 46 -6 46 -8 0 -12 4 -9 9 4 5 -3 7 -14 4 -31 -8 -387 60 -404 77 -5 5 -15 10 -20 10 -6 0 -4 -5 4 -11 11 -7 3 -8 -30 -3 -25 3 -47 9 -50 13 -3 3 -18 7 -35 8 -16 1 -82 11 -145 22 -63 12 -128 23 -145 25 -16 3 -68 12 -115 21 -80 15 -99 18 -175 29 -16 3 -66 12 -110 22 -44 9 -87 18 -95 19 -8 2 -17 4 -20 5 -5 3 -52 8 -85 10 -11 1 -27 4 -35 7 -8 3 -26 7 -40 9 -48 6 -86 13 -190 34 -121 25 -144 29 -185 34 -16 3 -43 7 -60 10 -16 2 -43 7 -60 9 -45 7 -128 25 -146 32 -14 5 -67 10 -142 14 -16 0 -26 4 -24 9 3 4 -8 7 -25 8 -20 1 -25 -2 -16 -7 10 -7 10 -9 -2 -9 -9 0 -22 6 -29 13 -9 7 -11 7 -8 1 9 -15 -17 -26 -40 -17 -12 5 -14 3 -8 -7 6 -10 4 -12 -8 -7 -10 4 -17 2 -17 -4 0 -6 -7 -8 -16 -5 -8 3 -13 2 -10 -3 3 -4 -17 -18 -44 -30 -30 -14 -47 -27 -43 -34 4 -7 0 -8 -12 -4 -11 5 -22 1 -31 -10 -12 -17 -13 -16 -9 5 2 13 0 20 -6 17 -5 -4 -7 -10 -4 -15 8 -12 -36 -51 -48 -43 -6 3 -7 1 -4 -4 8 -13 -20 -26 -35 -16 -6 3 -8 1 -4 -5 3 -6 2 -13 -4 -17 -5 -3 -10 0 -10 7 0 8 -7 4 -18 -8 -9 -12 -29 -29 -43 -38 -23 -15 -28 -15 -39 -1 -7 9 -8 15 -2 15 6 0 13 -6 15 -12 4 -10 6 -10 6 0 1 7 5 10 11 7 6 -4 7 1 3 11 -5 13 -3 15 7 9 9 -5 11 -4 6 4 -4 6 -11 9 -16 6 -4 -3 -11 1 -14 7 -3 7 -3 3 -1 -8 4 -16 1 -22 -11 -20 -9 0 -18 -7 -19 -17 -2 -9 1 -15 6 -11 14 8 10 -6 -6 -22 -8 -9 -15 -12 -15 -7 0 4 -5 0 -11 -9 -5 -10 -18 -18 -28 -18 -10 0 -24 -7 -31 -15 -7 -8 -20 -15 -29 -15 -14 0 -14 2 -1 10 13 9 13 10 0 10 -13 0 -13 1 0 11 13 9 13 10 0 6 -17 -4 -21 -26 -7 -44 6 -9 5 -13 -2 -13 -7 0 -27 -11 -45 -25 -18 -14 -36 -22 -40 -18 -4 5 -12 0 -17 -10 -6 -9 -14 -17 -18 -17 -5 0 -33 -16 -61 -35 -29 -20 -58 -34 -64 -32 -16 6 -46 -11 -46 -26 0 -14 -60 -53 -60 -40 0 4 -5 0 -11 -9 -5 -10 -15 -18 -22 -18 -8 0 -6 4 3 11 13 9 13 10 0 6 -8 -2 -14 -11 -14 -20 1 -9 -2 -14 -8 -11 -5 3 -15 0 -23 -6 -11 -10 -18 -10 -29 -1 -8 6 -19 10 -26 9 -7 -2 -15 3 -17 10 -3 7 1 10 10 6 8 -3 18 0 23 7 5 8 3 10 -7 4 -12 -8 -12 -6 0 8 14 18 36 13 25 -5 -4 -7 -2 -8 5 -4 6 4 9 11 6 15 -2 5 5 17 17 27 14 12 19 14 13 4 -4 -8 4 -4 20 10 16 14 24 18 20 10 -8 -13 -6 -13 8 -2 9 8 26 11 39 7 22 -6 22 -5 -2 9 -24 15 -24 15 -4 16 12 0 25 7 28 16 3 8 10 12 16 9 5 -3 10 -1 10 4 0 6 7 11 16 11 8 0 13 4 10 9 -3 5 1 12 10 15 8 3 12 2 9 -4 -3 -6 1 -7 9 -4 9 3 14 10 11 14 -5 7 63 39 76 36 4 0 16 7 28 18 18 16 23 17 38 5 17 -13 17 -12 0 7 -14 17 -15 23 -4 27 8 3 20 1 28 -5 11 -7 9 -8 -6 -3 -15 5 -17 3 -8 -6 16 -16 38 -2 23 16 -7 9 -6 16 7 26 15 12 16 12 8 -1 -4 -8 2 -5 15 8 12 13 29 21 37 18 8 -3 11 -2 8 3 -3 5 -1 12 5 16 5 3 10 0 10 -7 1 -7 9 -3 20 11 11 13 20 19 20 15 0 -5 5 -1 11 9 6 9 14 15 19 12 4 -3 11 2 14 11 4 9 13 14 22 10 8 -3 13 -2 10 3 -3 5 8 14 24 21 17 7 30 17 30 23 0 6 3 8 6 4 4 -3 13 1 21 9 8 8 19 11 25 8 7 -4 8 -2 4 4 -4 7 -2 12 4 12 7 0 25 9 40 20 18 13 31 16 35 10 3 -5 12 -10 18 -9 9 0 9 2 0 6 -7 2 -13 9 -13 14 0 12 56 40 65 31 5 -4 6 -2 2 3 -3 6 9 17 26 24 18 7 45 20 61 27 35 17 39 17 30 3 -4 -7 2 -7 17 1 23 13 161 16 179 5 6 -4 25 -8 43 -9 47 -4 226 -36 272 -49 22 -6 44 -10 49 -8 5 1 16 -1 25 -5 9 -4 28 -6 44 -5 15 2 27 -2 27 -7 0 -5 14 -8 32 -6 17 2 36 0 42 -4 6 -5 29 -10 50 -11 22 -1 43 -4 48 -7 18 -11 97 -25 145 -26 13 0 21 -3 18 -8 -2 -4 8 -7 23 -7 32 1 89 -8 226 -34 55 -11 112 -20 126 -19 20 0 22 -2 10 -10 -11 -7 -6 -8 17 -4 19 4 39 2 47 -5 7 -6 20 -9 29 -5 8 3 25 0 37 -6 13 -7 20 -7 16 -2 -4 6 2 8 15 5 14 -4 17 -8 9 -13 -7 -4 3 -7 21 -7 19 0 53 -3 76 -7 23 -4 55 -8 70 -10 86 -11 124 -19 129 -28 3 -5 15 -6 26 -2 11 3 18 2 15 -2 -3 -5 11 -10 31 -10 69 -3 328 -50 355 -64 11 -7 17 -7 17 1 0 5 5 7 12 2 7 -4 31 -8 53 -9 22 -1 41 -7 43 -12 1 -5 12 -8 23 -5 10 3 26 0 34 -7 11 -9 15 -9 15 -1 0 6 15 -4 34 -23 31 -30 34 -39 32 -82 -2 -27 -1 -53 2 -59 14 -24 7 -52 -19 -83 -16 -18 -29 -28 -29 -22 0 6 -5 8 -10 5 -6 -4 -7 -11 -4 -17 5 -7 2 -8 -6 -3 -8 5 -17 2 -24 -7 -13 -18 -58 -43 -69 -40 -5 1 -6 -2 -3 -7 3 -5 -1 -12 -10 -15 -10 -4 -13 -2 -8 7 6 8 3 8 -9 -1 -9 -8 -21 -11 -26 -7 -6 3 -8 0 -5 -8 6 -17 -79 -69 -100 -61 -7 3 -26 -10 -41 -28 -32 -38 -74 -71 -60 -47 5 8 -4 3 -20 -11 -16 -14 -24 -18 -20 -10 5 8 -11 -2 -37 -23 -35 -28 -45 -43 -42 -62 1 -14 -2 -23 -7 -19 -5 3 -7 9 -4 14 3 5 1 11 -4 15 -6 3 -8 -4 -6 -17 3 -13 9 -24 15 -26 6 -2 8 -7 5 -11 -2 -5 0 -22 4 -39 6 -20 5 -34 -2 -42 -9 -8 -8 -10 5 -5 14 6 17 1 16 -22 0 -31 47 -281 55 -290 3 -3 2 -16 -4 -30 -6 -16 -6 -22 1 -18 6 3 10 0 11 -7 0 -7 3 -22 5 -33 11 -49 17 -92 16 -117 -1 -16 2 -28 7 -28 10 0 32 -140 26 -169 -2 -12 0 -19 5 -16 5 3 7 -14 5 -37 -3 -29 -1 -38 5 -28 8 12 10 11 11 -5 1 -31 6 -66 18 -115 14 -60 14 -278 0 -321 -6 -19 -19 -40 -28 -48 -15 -13 -15 -13 1 -8 12 4 15 2 11 -9 -3 -7 -9 -14 -15 -14 -5 0 -8 -6 -7 -12 3 -27 -2 -39 -26 -60 -14 -12 -25 -28 -25 -37 0 -8 -10 -26 -22 -39 -13 -14 -16 -22 -8 -17 8 4 -1 -7 -20 -25 -31 -30 -32 -32 -10 -25 28 8 50 32 102 117 72 116 103 266 86 408 -5 41 -53 316 -107 610 l-97 535 60 38 c34 21 147 90 251 153 105 63 203 129 218 146 28 29 28 31 23 121 -7 101 -20 130 -69 152 -18 8 -135 33 -262 56 -126 22 -342 60 -480 85 -137 25 -387 69 -555 99 -168 30 -470 84 -673 120 -376 67 -466 75 -542 51z m410 -140 c138 -25 455 -81 705 -126 250 -45 502 -90 560 -100 58 -10 209 -37 335 -60 127 -23 279 -50 339 -60 102 -18 125 -25 115 -34 -2 -2 -96 -60 -209 -128 -337 -205 -1167 -710 -1440 -876 -275 -168 -325 -192 -398 -192 -26 0 -426 67 -887 150 -462 82 -862 153 -889 156 l-49 7 84 24 c46 13 273 84 504 158 419 134 748 235 764 235 5 0 14 -13 21 -30 7 -16 30 -46 52 -66 179 -162 549 -82 622 133 21 61 20 102 -3 155 -21 49 -90 117 -150 147 -104 54 -261 64 -353 23 -88 -38 -170 -134 -188 -217 -6 -29 -10 -31 -199 -87 -107 -32 -347 -107 -535 -167 -402 -129 -625 -199 -757 -236 l-95 -27 -149 27 c-83 14 -151 28 -153 30 -3 2 172 110 1008 618 190 116 465 283 611 373 280 171 318 192 359 205 51 15 132 8 375 -35z m-1035 -250 c0 -2 -8 -10 -17 -17 -16 -13 -17 -12 -4 4 13 16 21 21 21 13z m-170 -181 c-7 -9 -15 -13 -19 -10 -3 3 1 10 9 15 21 14 24 12 10 -5z m3015 -305 c-10 -11 -22 -20 -26 -20 -5 0 -1 9 8 20 10 11 22 20 27 20 5 0 1 -9 -9 -20z m-3625 -64 c0 -2 -7 -7 -16 -10 -8 -3 -12 -2 -9 4 6 10 25 14 25 6z m135 -404 c-3 -3 -11 0 -18 7 -9 10 -8 11 6 5 10 -3 15 -9 12 -12z m3398 -1227 c-3 -9 -8 -14 -10 -11 -3 3 -2 9 2 15 9 16 15 13 8 -4z m-3639 -399 c68 -293 21 -647 -125 -939 -47 -93 -42 -91 -112 -48 -176 109 -272 174 -269 183 1 6 20 36 42 68 130 192 234 491 256 740 l6 75 62 -3 c33 -2 72 1 86 6 31 12 34 7 54 -82z m317 -379 c-10 -9 -11 -8 -5 6 3 10 9 15 12 12 3 -3 0 -11 -7 -18z m-866 -379 c14 -6 25 -18 25 -25 0 -8 -4 -11 -10 -8 -5 3 -7 0 -4 -8 7 -18 -19 -39 -40 -31 -18 7 -23 64 -5 64 5 0 7 5 4 10 -8 13 -2 13 30 -2z m-5 -123 c11 -13 10 -14 -4 -9 -9 3 -16 10 -16 15 0 13 6 11 20 -6z"/> <path d="M1796 4492 c-3 -5 1 -9 9 -9 8 0 12 4 9 9 -3 4 -7 8 -9 8 -2 0 -6 -4 -9 -8z"/> <path d="M1877 4489 c7 -7 15 -10 18 -7 3 3 -2 9 -12 12 -14 6 -15 5 -6 -5z"/> <path d="M3117 4482 c-10 -10 -17 -30 -17 -44 0 -36 32 -60 99 -73 9 -2 17 -4 19 -5 1 -2 7 -3 13 -4 7 0 15 -9 18 -19 6 -17 8 -17 20 -3 10 12 18 13 33 5 11 -6 36 -12 56 -14 37 -3 204 -41 232 -53 20 -8 30 -9 63 -11 19 -1 26 -5 21 -13 -4 -6 -3 -8 3 -5 5 3 35 -1 67 -9 31 -8 66 -12 77 -9 27 9 52 50 45 73 -10 30 -44 65 -56 57 -6 -4 -17 -1 -25 5 -8 7 -24 10 -35 7 -13 -3 -18 -1 -13 6 4 6 0 8 -10 4 -9 -3 -47 2 -84 12 -37 10 -113 28 -168 41 -55 12 -120 27 -145 35 -49 15 -154 35 -180 35 -9 0 -24 -8 -33 -18z m334 -62 c161 -39 299 -68 307 -65 7 2 11 1 8 -4 -3 -5 8 -11 26 -15 40 -8 58 -23 58 -50 0 -26 -18 -46 -41 -46 -10 0 -111 23 -225 50 -114 28 -216 48 -228 45 -13 -4 -16 -3 -9 2 8 6 -17 16 -69 27 -131 30 -147 36 -159 57 -8 16 -7 26 6 45 8 13 19 24 24 24 5 0 141 -32 302 -70z"/> <path d="M1730 4425 c0 -2 6 -8 13 -14 10 -8 14 -7 14 2 0 8 -6 14 -14 14 -7 0 -13 -1 -13 -2z"/> <path d="M4566 4382 c-3 -5 1 -9 9 -9 8 0 12 4 9 9 -3 4 -7 8 -9 8 -2 0 -6 -4 -9 -8z"/> <path d="M4606 4378 c3 -5 10 -6 15 -3 13 9 11 12 -6 12 -8 0 -12 -4 -9 -9z"/> <path d="M4515 4310 c-3 -6 1 -7 9 -4 18 7 21 14 7 14 -6 0 -13 -4 -16 -10z"/> <path d="M3252 4265 c0 -16 2 -22 5 -12 2 9 2 23 0 30 -3 6 -5 -1 -5 -18z"/> <path d="M3980 4273 c-20 -8 -49 -45 -50 -64 0 -38 78 -83 120 -67 30 11 40 25 40 60 0 39 -71 85 -110 71z m59 -28 c49 -25 52 -79 6 -91 -26 -6 -83 19 -92 42 -7 19 23 64 43 64 8 0 28 -7 43 -15z"/> <path d="M1347 4224 c-11 -11 3 -24 18 -18 8 4 12 10 9 15 -6 11 -18 12 -27 3z"/> <path d="M1430 4191 c0 -6 4 -13 10 -16 6 -3 7 1 4 9 -7 18 -14 21 -14 7z"/> <path d="M1468 4163 c7 -3 16 -2 19 1 4 3 -2 6 -13 5 -11 0 -14 -3 -6 -6z"/> <path d="M1512 4146 c7 -8 15 -12 17 -11 5 6 -10 25 -20 25 -5 0 -4 -6 3 -14z"/> <path d="M4180 4140 c-8 -5 -10 -10 -5 -10 6 0 17 5 25 10 8 5 11 10 5 10 -5 0 -17 -5 -25 -10z"/> <path d="M1548 4123 c7 -3 16 -2 19 1 4 3 -2 6 -13 5 -11 0 -14 -3 -6 -6z"/> <path d="M1586 4111 c-3 -5 1 -12 10 -15 22 -8 25 -4 9 11 -8 7 -16 9 -19 4z"/> <path d="M2946 4093 c-6 -14 -5 -15 5 -6 7 7 10 15 7 18 -3 3 -9 -2 -12 -12z"/> <path d="M3221 4074 c0 -11 3 -14 6 -6 3 7 2 16 -1 19 -3 4 -6 -2 -5 -13z"/> <path d="M1062 4038 c35 -34 46 -39 54 -27 4 7 3 9 -3 6 -6 -4 -18 2 -28 13 -10 11 -22 20 -27 20 -5 0 -3 -6 4 -12z"/> <path d="M1029 4013 c-12 -16 -12 -17 2 -6 9 7 20 9 24 5 5 -4 5 -1 1 6 -9 16 -11 15 -27 -5z"/> <path d="M1757 4019 c7 -7 15 -10 18 -7 3 3 -2 9 -12 12 -14 6 -15 5 -6 -5z"/> <path d="M3186 4003 c-6 -14 -5 -15 5 -6 7 7 10 15 7 18 -3 3 -9 -2 -12 -12z"/> <path d="M3924 3985 c1 -10 10 -19 19 -21 10 -1 14 2 10 9 -4 7 0 8 11 4 11 -4 15 -3 11 4 -4 6 -13 8 -20 5 -7 -2 -17 0 -23 6 -7 7 -10 5 -8 -7z"/> <path d="M1525 3900 c-3 -6 1 -7 9 -4 18 7 21 14 7 14 -6 0 -13 -4 -16 -10z"/> <path d="M3790 3900 c-11 -7 -11 -10 -2 -10 8 0 10 -5 6 -12 -4 -7 -3 -9 1 -5 7 6 17 37 12 37 -1 0 -9 -5 -17 -10z"/> <path d="M3092 3860 c-18 -17 -29 -30 -24 -30 5 0 21 14 37 30 37 38 30 38 -13 0z"/> <path d="M781 3867 c-8 -10 -7 -14 2 -14 8 0 14 6 14 14 0 7 -1 13 -2 13 -2 0 -8 -6 -14 -13z"/> <path d="M2070 3855 c7 -8 17 -12 22 -9 5 3 18 -2 29 -12 10 -9 19 -12 19 -6 0 13 -31 31 -62 37 -16 4 -18 2 -8 -10z"/> <path d="M3693 3823 c0 -9 4 -10 14 -2 7 6 13 12 13 14 0 1 -6 2 -13 2 -8 0 -14 -6 -14 -14z"/> <path d="M2150 3816 c0 -2 7 -7 16 -10 8 -3 12 -2 9 4 -6 10 -25 14 -25 6z"/> <path d="M643 3785 c0 -8 4 -12 9 -9 5 3 6 10 3 15 -9 13 -12 11 -12 -6z"/> <path d="M675 3780 c-3 -6 1 -7 9 -4 18 7 21 14 7 14 -6 0 -13 -4 -16 -10z"/> <path d="M1833 3775 c0 -8 4 -12 9 -9 5 3 6 10 3 15 -9 13 -12 11 -12 -6z"/> <path d="M2290 3766 c0 -2 11 -11 25 -20 14 -9 25 -13 25 -8 0 5 -11 14 -25 20 -14 6 -25 10 -25 8z"/> <path d="M1045 3740 c-3 -6 1 -7 9 -4 18 7 21 14 7 14 -6 0 -13 -4 -16 -10z"/> <path d="M506 3711 c-3 -5 2 -15 12 -22 15 -13 16 -12 3 4 -17 21 -4 23 19 2 14 -13 17 -13 17 0 0 8 -4 12 -8 9 -4 -2 -10 0 -14 6 -8 12 -22 13 -29 1z"/> <path d="M2408 3713 c6 -2 18 -2 25 0 6 3 1 5 -13 5 -14 0 -19 -2 -12 -5z"/> <path d="M2445 3700 c-8 -13 5 -13 25 0 13 8 13 10 -2 10 -9 0 -20 -4 -23 -10z"/> <path d="M2765 3683 c-22 -3 -44 -8 -48 -12 -7 -7 115 5 138 14 12 4 -35 3 -90 -2z"/> <path d="M2565 3675 c23 -8 83 -10 79 -3 -3 4 -24 8 -47 7 -23 0 -37 -2 -32 -4z"/> <path d="M3445 3670 c-4 -6 -11 -7 -17 -4 -7 4 -8 2 -4 -5 6 -9 11 -9 22 0 14 11 18 19 10 19 -3 0 -8 -5 -11 -10z"/> <path d="M1352 3641 c-11 -7 -10 -9 3 -14 9 -4 14 -3 10 2 -3 5 1 12 7 14 7 3 9 6 3 6 -5 0 -16 -3 -23 -8z"/> <path d="M3370 3646 c0 -2 8 -10 18 -17 15 -13 16 -12 3 4 -13 16 -21 21 -21 13z"/> <path d="M1302 3621 c-11 -7 -11 -9 0 -14 9 -3 15 1 15 9 0 8 -1 14 -1 14 -1 0 -7 -4 -14 -9z"/> <path d="M1330 3616 c0 -2 7 -7 16 -10 8 -3 12 -2 9 4 -6 10 -25 14 -25 6z"/> <path d="M3295 3589 c-4 -6 -5 -12 -2 -15 2 -3 7 2 10 11 7 17 1 20 -8 4z"/> <path d="M3123 3465 c0 -8 4 -12 9 -9 5 3 6 10 3 15 -9 13 -12 11 -12 -6z"/> <path d="M3041 3427 c-8 -10 -7 -14 2 -14 8 0 14 6 14 14 0 7 -1 13 -2 13 -2 0 -8 -6 -14 -13z"/> <path d="M2889 3358 c-5 -18 -6 -38 -1 -34 7 8 12 36 6 36 -2 0 -4 -1 -5 -2z"/> <path d="M456 1483 c-6 -14 -5 -15 5 -6 7 7 10 15 7 18 -3 3 -9 -2 -12 -12z"/> <path d="M385 1299 c-4 -6 -5 -12 -2 -15 2 -3 7 2 10 11 7 17 1 20 -8 4z"/> <path d="M301 1176 c-9 -11 -9 -16 1 -22 7 -4 10 -4 6 1 -4 4 -3 14 3 22 6 7 9 13 6 13 -2 0 -10 -6 -16 -14z"/> <path d="M354 1108 c-5 -7 -3 -8 6 -3 10 6 12 4 7 -8 -4 -11 -2 -14 9 -10 11 4 12 9 3 19 -14 17 -16 17 -25 2z"/> <path d="M2145 4811 c-3 -5 -2 -12 3 -15 5 -3 9 1 9 9 0 17 -3 19 -12 6z"/> <path d="M1770 4570 c8 -5 20 -10 25 -10 6 0 3 5 -5 10 -8 5 -19 10 -25 10 -5 0 -3 -5 5 -10z"/> <path d="M4610 4506 c0 -2 7 -7 16 -10 8 -3 12 -2 9 4 -6 10 -25 14 -25 6z"/> <path d="M1376 4468 c3 -5 10 -6 15 -3 13 9 11 12 -6 12 -8 0 -12 -4 -9 -9z"/> <path d="M1505 4411 c-3 -5 -2 -12 3 -15 5 -3 9 1 9 9 0 17 -3 19 -12 6z"/> <path d="M1346 4318 c3 -5 10 -6 15 -3 13 9 11 12 -6 12 -8 0 -12 -4 -9 -9z"/> <path d="M2443 4225 c-13 -7 -20 -15 -15 -20 4 -4 -1 -5 -10 -2 -9 3 -18 3 -20 -1 -7 -17 -61 -51 -71 -45 -5 3 -7 2 -4 -4 3 -5 -3 -29 -15 -52 -11 -23 -22 -56 -23 -74 -3 -40 19 -97 48 -120 16 -12 17 -15 5 -11 -11 4 -18 1 -18 -7 0 -7 3 -9 7 -6 3 4 16 1 27 -7 33 -21 117 -42 166 -40 87 2 129 8 124 16 -3 4 7 8 21 8 17 0 24 4 19 12 -5 8 -2 9 12 4 10 -4 15 -4 12 0 -4 4 13 20 37 36 25 17 45 37 45 45 0 8 6 13 13 10 9 -3 12 13 13 59 1 43 -2 62 -9 57 -6 -4 -8 0 -4 10 6 15 -27 68 -41 65 -15 -4 -52 14 -47 23 3 5 -2 6 -11 2 -11 -4 -15 -3 -10 5 6 10 -19 23 -54 27 -8 1 -26 4 -40 8 -48 12 -135 13 -157 2z m172 -29 c103 -27 164 -74 180 -137 15 -59 -55 -146 -142 -179 -64 -24 -178 -26 -237 -5 -22 8 -44 11 -49 8 -6 -3 -7 -1 -3 5 3 6 -3 17 -14 25 -21 15 -50 75 -50 105 0 32 51 121 82 144 67 47 143 59 233 34z m166 -63 c13 -16 12 -17 -3 -4 -17 13 -22 21 -14 21 2 0 10 -8 17 -17z"/> <path d="M2723 3985 c0 -6 6 -12 12 -12 6 0 12 6 12 12 0 6 -6 12 -12 12 -6 0 -12 -6 -12 -12z"/> <path d="M966 4203 c-6 -14 -5 -15 5 -6 7 7 10 15 7 18 -3 3 -9 -2 -12 -12z"/> <path d="M2840 4130 c0 -5 5 -10 11 -10 5 0 7 5 4 10 -3 6 -8 10 -11 10 -2 0 -4 -4 -4 -10z"/> <path d="M2820 4116 c0 -2 8 -10 18 -17 15 -13 16 -12 3 4 -13 16 -21 21 -21 13z"/> <path d="M4435 4060 c-10 -11 -22 -17 -26 -14 -5 3 -6 -2 -3 -11 4 -9 7 -15 8 -13 0 2 12 15 25 31 14 15 22 27 19 27 -3 0 -13 -9 -23 -20z"/> <path d="M806 4012 c-3 -5 1 -9 9 -9 8 0 12 4 9 9 -3 4 -7 8 -9 8 -2 0 -6 -4 -9 -8z"/> <path d="M2320 3860 c-9 -6 -10 -10 -3 -10 6 0 15 5 18 10 8 12 4 12 -15 0z"/> <path d="M3940 3860 c-9 -6 -10 -10 -3 -10 6 0 15 5 18 10 8 12 4 12 -15 0z"/> <path d="M4145 3839 c-4 -6 -14 -8 -22 -5 -8 3 -12 2 -9 -3 6 -9 -22 -26 -37 -22 -5 1 -6 -3 -2 -9 4 -6 -5 -10 -22 -10 -22 0 -25 -2 -13 -10 13 -8 13 -10 -1 -10 -10 0 -40 -15 -67 -34 -28 -18 -64 -40 -81 -47 -17 -8 -31 -17 -31 -21 0 -4 -10 -12 -21 -19 -12 -6 -19 -7 -15 -1 3 5 -2 16 -12 23 -15 12 -16 12 -5 -1 7 -10 9 -21 3 -30 -10 -16 -20 -10 -24 14 -1 9 -5 16 -9 16 -4 0 -9 0 -12 0 -3 0 1 -10 10 -23 14 -22 13 -24 -14 -40 -15 -9 -38 -15 -50 -12 -12 2 -19 0 -16 -6 4 -5 12 -7 18 -3 7 3 1 -4 -13 -15 -14 -11 -29 -21 -35 -21 -5 0 -3 5 5 10 8 5 10 10 4 10 -16 0 -35 -25 -26 -35 4 -5 1 -5 -6 -1 -8 5 -20 0 -30 -11 -25 -27 -68 -47 -83 -38 -7 5 -10 4 -6 -2 10 -16 -47 -52 -74 -47 -22 4 -22 3 -4 -5 17 -8 18 -10 3 -10 -10 -1 -18 -5 -18 -11 0 -5 -5 -10 -11 -10 -7 0 -18 -8 -26 -17 -8 -10 -12 -12 -8 -5 10 19 -1 14 -31 -13 -15 -14 -34 -23 -41 -20 -8 2 -11 1 -8 -5 7 -12 -32 -33 -47 -24 -6 4 -8 3 -4 -4 3 -6 2 -13 -4 -17 -5 -3 -10 -1 -10 5 0 6 -5 8 -11 5 -6 -4 -8 -14 -4 -22 5 -14 3 -14 -12 -2 -11 9 -14 10 -9 2 7 -12 -5 -18 -27 -14 -5 1 -6 -3 -3 -8 10 -16 -18 -19 -35 -5 -13 12 -16 12 -16 -1 0 -8 4 -12 9 -9 4 3 8 2 8 -1 0 -13 -56 -54 -73 -55 -12 0 -16 -4 -11 -12 5 -8 0 -7 -11 2 -11 9 -16 10 -11 2 4 -7 0 -15 -11 -19 -10 -4 -20 -9 -23 -13 -3 -3 -21 -18 -41 -33 -32 -24 -37 -26 -43 -11 -7 18 -21 11 -21 -9 0 -7 -29 -26 -65 -44 -64 -32 -117 -39 -225 -29 -69 5 -285 50 -274 56 7 5 5 9 -5 13 -9 4 -15 1 -13 -5 1 -7 -6 -14 -17 -16 -12 -2 -16 0 -11 7 5 8 -2 10 -22 6 -17 -4 -23 -3 -16 2 8 6 0 9 -25 10 -34 0 -82 6 -142 19 -23 4 -219 39 -280 49 -14 2 -41 7 -60 10 -19 3 -48 10 -64 15 -15 6 -31 8 -35 6 -3 -2 -35 3 -71 10 -75 17 -85 19 -162 29 -32 4 -58 10 -58 14 0 3 -12 6 -27 7 -16 0 -84 11 -153 23 -94 17 -130 20 -148 12 -20 -10 -21 -14 -11 -33 11 -21 11 -22 -4 -9 -19 15 -23 1 -5 -17 6 -6 13 -20 14 -29 11 -71 37 -212 44 -229 4 -11 4 -27 -1 -36 -10 -19 -1 -51 12 -42 5 3 9 -4 9 -15 0 -10 3 -27 7 -37 4 -12 3 -15 -5 -10 -7 4 -12 3 -12 -3 0 -5 5 -11 11 -13 6 -2 12 -22 13 -45 0 -23 4 -40 7 -37 7 4 23 -101 23 -148 0 -15 4 -24 10 -21 5 4 7 -1 3 -11 -4 -10 -3 -15 3 -11 13 8 13 -1 -2 -28 -11 -21 -10 -21 7 -7 17 14 18 13 13 -8 -4 -12 -3 -20 1 -17 5 2 13 -7 19 -20 7 -14 8 -25 3 -25 -5 0 -12 6 -14 13 -4 7 -6 8 -6 1 -1 -7 11 -19 25 -29 15 -10 23 -22 20 -31 -3 -8 -2 -12 4 -9 11 7 32 -29 22 -40 -4 -5 -2 -5 5 -1 7 4 23 -10 40 -34 15 -22 34 -40 41 -40 8 0 10 -5 6 -12 -5 -7 -2 -9 9 -5 12 4 15 1 12 -14 -3 -16 -1 -18 17 -8 15 8 19 8 14 0 -4 -6 0 -11 8 -11 9 0 16 -4 16 -9 0 -13 160 -60 251 -73 95 -13 558 -16 664 -4 203 22 239 25 243 21 3 -2 12 0 22 5 9 5 39 11 66 14 92 10 189 28 284 51 69 18 98 21 107 13 10 -8 12 -7 7 5 -5 13 0 16 23 16 15 0 69 14 118 31 87 31 121 40 157 43 9 1 15 4 12 8 -6 10 26 20 38 12 7 -3 8 -1 4 5 -9 15 -1 15 24 2 16 -8 18 -8 14 5 -4 10 3 18 22 25 16 5 37 14 46 20 12 6 19 6 24 -2 5 -7 3 -8 -6 -3 -9 5 -11 4 -6 -4 4 -6 12 -9 17 -5 5 3 7 9 4 14 -7 11 19 31 44 33 11 1 18 3 16 6 -3 2 12 12 32 21 35 16 39 16 51 1 11 -14 12 -13 10 8 -2 16 3 24 15 27 10 1 24 9 30 17 7 8 27 20 44 27 18 7 30 16 27 21 -3 5 7 4 22 -1 23 -9 25 -9 15 4 -11 13 -8 16 13 22 14 3 26 10 26 15 0 5 7 9 16 9 9 0 12 5 8 12 -4 7 -3 8 5 4 7 -5 20 3 32 18 11 13 30 28 42 32 12 4 29 15 38 25 9 10 19 16 23 12 3 -3 6 1 6 10 0 10 3 16 8 16 21 -4 32 2 26 13 -5 7 -2 9 9 5 11 -4 14 -2 11 7 -3 7 3 19 13 27 16 13 17 12 4 -3 -9 -12 -10 -18 -2 -18 6 0 11 4 11 8 0 5 7 17 16 28 8 10 12 13 8 5 -4 -9 -3 -12 4 -7 6 4 8 14 5 23 -5 12 -2 15 10 10 10 -4 14 -2 12 6 -3 7 5 23 16 37 11 14 18 20 15 13 -4 -6 -3 -14 2 -17 4 -2 9 7 10 22 1 14 9 36 17 49 9 13 13 29 9 35 -5 7 -2 9 8 5 10 -3 19 3 27 21 11 26 11 26 -5 7 l-17 -20 8 20 c15 39 44 176 36 171 -3 -2 -7 24 -8 57 -2 62 -6 92 -19 157 -3 19 -8 46 -9 60 -1 14 -10 59 -19 100 -16 71 -25 124 -29 180 -1 14 -6 28 -11 32 -5 3 -2 19 9 35 9 15 12 22 4 16 -16 -16 -33 -17 -23 -1 4 7 3 8 -4 4 -7 -4 -12 -2 -12 3 0 14 -37 14 -45 0z m45 -30 c0 -12 19 -121 42 -243 35 -186 42 -242 42 -351 0 -113 -3 -137 -23 -188 -53 -133 -151 -237 -351 -371 -436 -293 -945 -450 -1613 -497 -219 -15 -616 -7 -712 15 -214 48 -363 194 -414 403 -24 99 -135 693 -130 697 2 2 74 -9 159 -25 85 -15 281 -51 435 -78 154 -28 433 -78 620 -111 187 -34 370 -64 406 -67 118 -10 160 9 589 270 708 430 845 513 885 540 49 32 65 33 65 6z"/> <path d="M4143 3775 c0 -8 4 -12 9 -9 5 3 6 10 3 15 -9 13 -12 11 -12 -6z"/> <path d="M3780 3556 c0 -2 7 -7 16 -10 8 -3 12 -2 9 4 -6 10 -25 14 -25 6z"/> <path d="M3898 3501 c-24 -81 -22 -101 3 -26 10 33 18 66 16 73 -1 7 -10 -14 -19 -47z"/> <path d="M3665 3480 c-4 -6 -10 -8 -14 -6 -3 3 -7 -3 -7 -13 0 -9 7 -17 16 -17 10 0 16 9 16 23 0 26 -2 28 -11 13z"/> <path d="M3861 3344 c0 -11 3 -14 6 -6 3 7 2 16 -1 19 -3 4 -6 -2 -5 -13z"/> <path d="M3826 3283 c-6 -14 -5 -15 5 -6 7 7 10 15 7 18 -3 3 -9 -2 -12 -12z"/> <path d="M3801 3234 c0 -11 3 -14 6 -6 3 7 2 16 -1 19 -3 4 -6 -2 -5 -13z"/> <path d="M3258 3233 c10 -4 9 -9 -5 -20 -17 -13 -16 -13 5 -3 22 11 22 31 -1 29 -8 0 -8 -2 1 -6z"/> <path d="M1100 3226 c0 -2 7 -7 16 -10 8 -3 12 -2 9 4 -6 10 -25 14 -25 6z"/> <path d="M1091 3124 c0 -11 3 -14 6 -6 3 7 2 16 -1 19 -3 4 -6 -2 -5 -13z"/> <path d="M3076 3132 c-3 -5 1 -9 9 -9 8 0 12 4 9 9 -3 4 -7 8 -9 8 -2 0 -6 -4 -9 -8z"/> <path d="M3735 3090 c-3 -5 -1 -10 4 -10 6 0 11 5 11 10 0 6 -2 10 -4 10 -3 0 -8 -4 -11 -10z"/> <path d="M1980 3066 c0 -2 7 -7 16 -10 8 -3 12 -2 9 4 -6 10 -25 14 -25 6z"/> <path d="M2983 3053 c0 -8 6 -9 17 -3 10 6 21 5 27 -1 6 -6 10 -5 10 4 0 7 -11 13 -27 12 -15 0 -27 -5 -27 -12z"/> <path d="M3570 2849 c0 -5 5 -7 10 -4 6 3 10 8 10 11 0 2 -4 4 -10 4 -5 0 -10 -5 -10 -11z"/> <path d="M3515 2789 c-4 -6 -5 -12 -2 -15 2 -3 7 2 10 11 7 17 1 20 -8 4z"/> <path d="M4000 2796 c0 -2 8 -10 18 -17 15 -13 16 -12 3 4 -13 16 -21 21 -21 13z"/> <path d="M1190 2765 c0 -8 4 -15 10 -15 5 0 7 7 4 15 -4 8 -8 15 -10 15 -2 0 -4 -7 -4 -15z"/> <path d="M1438 2773 c7 -3 16 -2 19 1 4 3 -2 6 -13 5 -11 0 -14 -3 -6 -6z"/> <path d="M3476 2754 c-11 -7 -18 -16 -15 -18 2 -2 13 2 23 10 11 7 18 16 15 18 -2 2 -13 -2 -23 -10z"/> <path d="M1407 2749 c-29 -17 -40 -57 -22 -82 8 -12 15 -28 15 -36 0 -8 11 -29 25 -46 13 -18 21 -36 17 -40 -4 -5 -2 -5 5 -1 12 7 37 -27 27 -37 -3 -3 1 -5 8 -4 33 1 48 -4 45 -15 -1 -7 4 -12 11 -10 7 1 25 -6 40 -16 15 -11 33 -17 41 -14 9 3 11 0 7 -7 -6 -8 0 -10 21 -6 21 5 24 4 13 -4 -9 -6 -10 -11 -3 -11 6 0 19 -3 29 -7 12 -4 15 -3 10 6 -5 7 6 6 32 -4 21 -9 43 -15 48 -14 5 1 29 -1 54 -5 208 -33 430 -30 430 5 0 6 4 8 9 4 5 -3 13 0 17 6 4 7 3 9 -3 6 -5 -4 -10 7 -10 25 0 28 1 29 14 12 7 -10 13 -13 13 -7 0 13 -30 39 -30 27 0 -5 -5 -1 -11 9 -5 9 -17 17 -25 17 -8 0 -13 4 -9 9 3 6 -6 6 -25 1 -21 -6 -30 -5 -30 3 0 8 -2 9 -8 1 -8 -13 -173 -14 -165 -1 3 4 -15 8 -39 7 -71 -2 -216 22 -193 31 15 6 9 8 -20 7 -22 -1 -51 2 -65 6 -52 15 -80 29 -75 36 3 4 -3 14 -12 21 -12 10 -14 10 -9 2 4 -7 4 -13 -1 -13 -14 0 -74 74 -80 100 -11 45 -55 63 -96 39z m94 -66 c29 -58 54 -83 114 -112 94 -47 299 -80 488 -81 134 0 157 -7 157 -51 0 -45 -30 -52 -195 -45 -255 11 -476 61 -547 123 -9 9 -22 12 -30 7 -7 -4 -10 -4 -6 0 3 4 -10 29 -29 54 -51 67 -67 109 -54 139 9 19 17 24 43 21 27 -3 36 -11 59 -55z"/> <path d="M3880 2706 c0 -2 8 -10 18 -17 15 -13 16 -12 3 4 -13 16 -21 21 -21 13z"/> <path d="M3846 2688 c3 -5 10 -6 15 -3 13 9 11 12 -6 12 -8 0 -12 -4 -9 -9z"/> <path d="M1350 2646 c0 -2 9 -6 20 -9 11 -3 18 -1 14 4 -5 9 -34 13 -34 5z"/> <path d="M1371 2584 c0 -11 3 -14 6 -6 3 7 2 16 -1 19 -3 4 -6 -2 -5 -13z"/> <path d="M1400 2580 c6 -11 13 -20 16 -20 2 0 0 9 -6 20 -6 11 -13 20 -16 20 -2 0 0 -9 6 -20z"/> <path d="M3020 2553 c-73 -11 -92 -15 -89 -18 2 -2 47 3 99 10 52 7 77 13 55 12 -22 0 -51 -1 -65 -4z"/> <path d="M1858 2543 c12 -2 30 -2 40 0 9 3 -1 5 -23 4 -22 0 -30 -2 -17 -4z"/> <path d="M1968 2543 c12 -2 30 -2 40 0 9 3 -1 5 -23 4 -22 0 -30 -2 -17 -4z"/> <path d="M2041 2546 c3 -3 40 -7 84 -10 51 -3 74 -2 65 4 -15 9 -158 14 -149 6z"/> <path d="M2230 2540 c8 -5 28 -10 44 -10 39 0 30 6 -19 13 -27 4 -35 3 -25 -3z"/> <path d="M2495 2531 c20 -8 20 -8 -2 -15 -12 -4 -26 -20 -32 -37 -14 -40 3 -66 53 -81 32 -10 43 -9 67 4 20 12 29 13 33 5 3 -7 5 -6 5 3 -2 33 1 51 9 46 5 -3 8 9 8 27 -1 28 -5 32 -30 34 -16 1 -34 7 -40 13 -5 5 -28 10 -50 9 -31 0 -36 -2 -21 -8z m62 -7 c-3 -3 -12 -4 -19 -1 -8 3 -5 6 6 6 11 1 17 -2 13 -5z m34 -24 c23 -13 25 -47 2 -72 -20 -22 -71 -24 -101 -2 -63 44 27 112 99 74z m39 0 c0 -5 -2 -10 -4 -10 -3 0 -8 5 -11 10 -3 6 -1 10 4 10 6 0 11 -4 11 -10z"/> <path d="M2683 2533 c37 -2 97 -2 135 0 37 2 6 3 -68 3 -74 0 -105 -1 -67 -3z"/> <path d="M3224 2388 c-4 -7 -3 -8 4 -4 6 4 22 2 34 -4 22 -11 22 -10 4 4 -24 19 -32 20 -42 4z"/> <path d="M1375 2311 c-10 -17 17 -24 31 -7 8 9 9 11 2 6 -16 -13 -31 -13 -23 0 3 6 4 10 1 10 -3 0 -7 -4 -11 -9z"/> <path d="M439 3778 c-8 -27 -5 -36 9 -30 10 4 12 7 4 10 -7 2 -10 8 -6 13 3 5 3 9 0 9 -3 0 -6 -1 -7 -2z"/> <path d="M3924 3735 c0 -13 3 -22 7 -19 8 4 6 30 -2 38 -3 3 -5 -5 -5 -19z"/> <path d="M203 3733 c4 -3 1 -13 -6 -22 -11 -14 -10 -14 5 -2 16 12 16 31 1 31 -4 0 -3 -3 0 -7z"/> <path d="M405 3720 c-3 -6 1 -7 9 -4 18 7 21 14 7 14 -6 0 -13 -4 -16 -10z"/> <path d="M250 3616 c0 -2 7 -7 16 -10 8 -3 12 -2 9 4 -6 10 -25 14 -25 6z"/> <path d="M3549 3503 c-13 -16 -12 -17 4 -4 16 13 21 21 13 21 -2 0 -10 -8 -17 -17z"/> <path d="M3245 3449 c-3 -4 2 -6 10 -5 21 3 28 13 10 13 -9 0 -18 -4 -20 -8z"/> <path d="M4323 3435 c0 -8 4 -12 9 -9 5 3 6 10 3 15 -9 13 -12 11 -12 -6z"/> <path d="M3174 3398 l-19 -23 23 19 c12 11 22 21 22 23 0 8 -8 2 -26 -19z"/> <path d="M1318 3393 c7 -3 16 -2 19 1 4 3 -2 6 -13 5 -11 0 -14 -3 -6 -6z"/> <path d="M1355 3380 c-3 -6 1 -7 9 -4 18 7 21 14 7 14 -6 0 -13 -4 -16 -10z"/> <path d="M3146 3267 c3 -10 9 -15 12 -12 3 3 0 11 -7 18 -10 9 -11 8 -5 -6z"/> <path d="M976 3213 c-6 -14 -5 -15 5 -6 7 7 10 15 7 18 -3 3 -9 -2 -12 -12z"/> <path d="M4341 3214 c0 -11 3 -14 6 -6 3 7 2 16 -1 19 -3 4 -6 -2 -5 -13z"/> <path d="M2997 3179 c7 -7 15 -10 18 -7 3 3 -2 9 -12 12 -14 6 -15 5 -6 -5z"/> <path d="M1001 3004 c0 -11 3 -14 6 -6 3 7 2 16 -1 19 -3 4 -6 -2 -5 -13z"/> <path d="M4324 2952 c-5 -4 -20 -29 -33 -56 -18 -38 -25 -46 -33 -35 -7 10 -7 7 -3 -10 4 -13 3 -22 -1 -19 -9 5 -55 -38 -48 -45 2 -2 -7 -14 -21 -27 -14 -13 -25 -19 -25 -14 0 5 -9 -4 -20 -21 -11 -16 -20 -26 -20 -22 0 8 -88 -59 -101 -77 -4 -5 -12 -5 -19 -1 -8 5 -11 4 -6 -3 6 -10 -27 -39 -64 -56 -40 -19 -59 -34 -52 -41 4 -5 1 -5 -7 0 -9 5 -18 3 -25 -6 -6 -8 -26 -21 -43 -28 -18 -7 -30 -17 -28 -22 3 -4 -3 -8 -12 -9 -51 -2 -62 -5 -53 -15 6 -7 1 -16 -13 -25 -20 -12 -21 -12 -9 3 10 12 10 17 1 23 -8 4 -9 3 -5 -4 8 -14 -53 -54 -67 -45 -6 3 -7 1 -3 -5 4 -7 -4 -14 -21 -17 -33 -7 -115 -46 -125 -59 -3 -5 -19 -10 -35 -11 -50 -3 -54 -5 -47 -16 4 -8 1 -8 -13 -1 -13 7 -24 7 -34 0 -11 -8 -11 -9 4 -4 9 3 17 1 17 -4 0 -6 -14 -10 -31 -10 -16 0 -28 -4 -25 -9 3 -5 -6 -8 -20 -8 -15 0 -29 -4 -33 -9 -6 -10 -40 -15 -103 -18 -20 0 -34 -4 -32 -7 5 -9 -27 -23 -45 -20 -7 1 -10 -2 -7 -8 4 -5 -2 -9 -11 -9 -10 1 -38 -5 -63 -12 -48 -14 -57 -15 -137 -26 -29 -4 -53 -10 -53 -13 0 -5 -16 -7 -120 -14 -19 -1 -37 -5 -40 -8 -5 -7 -59 -14 -180 -24 -41 -4 -93 -8 -115 -11 -22 -2 -89 -6 -150 -9 -60 -3 -129 -7 -152 -9 -24 -3 -43 0 -43 5 0 6 -60 8 -162 5 -101 -3 -166 -2 -174 5 -6 5 -16 9 -20 7 -7 -1 -53 4 -139 18 -29 4 -74 27 -69 35 3 5 -3 6 -12 2 -11 -4 -15 -3 -11 4 5 7 0 9 -11 6 -10 -2 -24 3 -31 11 -8 9 -18 16 -24 16 -19 0 -77 51 -71 62 4 7 2 8 -5 4 -6 -4 -18 -3 -25 3 -31 26 -56 -20 -32 -58 7 -11 6 -12 -5 -6 -12 7 -12 6 -1 -7 7 -9 12 -20 11 -24 -1 -5 1 -17 6 -28 5 -12 3 -21 -6 -27 -10 -6 -10 -9 -1 -9 6 0 12 -10 12 -22 0 -27 46 -142 73 -180 10 -16 16 -28 13 -28 -13 0 50 -63 76 -76 31 -16 51 -19 28 -4 -11 7 6 10 55 11 39 1 74 0 80 -1 5 -1 214 -4 465 -7 250 -3 475 -6 500 -7 25 -1 48 2 51 7 4 5 22 11 40 12 19 2 36 5 39 6 3 1 8 1 13 0 4 0 7 4 7 9 0 6 12 10 28 10 38 -1 98 6 108 12 5 3 34 9 64 13 30 5 66 10 80 13 14 2 51 6 83 7 32 2 64 8 71 14 14 12 86 12 86 0 0 -5 12 -8 28 -7 15 1 36 -2 47 -6 14 -5 13 -3 -4 7 -23 14 -23 14 -2 20 11 3 19 1 15 -4 -3 -5 5 -9 18 -8 14 0 18 3 9 6 -8 3 15 16 54 29 45 15 73 20 79 14 6 -6 14 -10 20 -10 5 0 1 7 -10 15 -18 14 -17 15 10 9 22 -5 27 -4 21 6 -5 9 -1 10 16 5 19 -5 21 -4 9 5 -12 9 -10 10 10 9 46 -4 76 1 62 9 -7 5 14 13 55 21 38 8 85 22 106 33 22 11 45 17 53 14 10 -4 12 -2 8 6 -5 8 -2 9 9 5 9 -3 33 1 53 9 20 9 46 13 57 10 10 -2 16 -2 13 1 -10 10 66 36 104 36 19 0 29 2 23 4 -7 3 -13 9 -13 14 0 5 10 4 23 -2 19 -11 20 -10 10 3 -11 12 -8 17 13 27 15 6 50 31 78 55 28 24 59 42 69 41 9 -2 15 1 11 6 -3 5 -11 6 -17 3 -7 -4 0 6 14 22 15 16 32 39 38 52 7 12 16 20 21 17 6 -4 7 1 3 11 -3 10 -2 15 3 12 5 -3 15 0 22 8 7 8 10 14 6 14 -3 0 -1 7 6 15 6 8 8 20 4 27 -6 9 -3 9 10 -1 9 -8 16 -10 14 -5 -1 5 4 20 11 33 7 13 10 36 7 53 -4 18 -2 27 5 23 11 -8 6 271 -7 320 -4 17 -8 42 -8 57 -1 14 -5 24 -10 20 -5 -3 -7 2 -3 11 3 10 2 17 -3 17 -14 0 -12 -46 5 -137 42 -221 -5 -396 -144 -533 -86 -86 -183 -157 -229 -170 -21 -5 -206 -61 -411 -124 -280 -86 -379 -113 -392 -105 -13 6 -100 -3 -286 -31 -292 -44 -303 -46 -303 -62 0 -8 -52 -9 -172 -4 -95 3 -372 7 -615 8 l-443 1 -23 36 c-62 93 -80 140 -102 266 -9 50 -19 101 -22 114 -6 23 -2 22 43 -16 153 -127 305 -163 704 -163 731 0 1339 140 1824 419 284 164 475 331 532 467 15 36 15 38 -2 26z m42 -490 c-14 -15 -15 -13 -3 17 8 23 13 28 15 16 2 -10 -3 -25 -12 -33z m-1236 -262 c-8 -5 -19 -10 -25 -10 -5 0 -3 5 5 10 8 5 20 10 25 10 6 0 3 -5 -5 -10z m-1222 -147 c-10 -2 -28 -2 -40 0 -13 2 -5 4 17 4 22 1 32 -1 23 -4z"/> <path d="M4252 2920 c0 -14 2 -19 5 -12 2 6 2 18 0 25 -3 6 -5 1 -5 -13z"/> <path d="M1022 2910 c0 -14 2 -19 5 -12 2 6 2 18 0 25 -3 6 -5 1 -5 -13z"/> <path d="M4200 2859 c0 -5 5 -7 10 -4 6 3 10 8 10 11 0 2 -4 4 -10 4 -5 0 -10 -5 -10 -11z"/> <path d="M483 2705 c0 -8 4 -12 9 -9 5 3 6 10 3 15 -9 13 -12 11 -12 -6z"/> <path d="M3959 2653 c-13 -16 -12 -17 4 -4 16 13 21 21 13 21 -2 0 -10 -8 -17 -17z"/> <path d="M4061 2596 c-9 -11 -9 -16 1 -22 7 -4 10 -4 6 1 -4 4 -3 14 3 22 6 7 9 13 6 13 -2 0 -10 -6 -16 -14z"/> <path d="M770 2581 c0 -8 -7 -11 -17 -6 -15 5 -16 4 -5 -6 9 -10 15 -10 24 -1 6 6 9 15 5 19 -4 3 -7 1 -7 -6z"/> <path d="M541 2569 c5 -3 -2 -11 -16 -17 -15 -7 -31 -10 -36 -7 -5 3 -6 -1 -3 -9 3 -9 2 -16 -3 -16 -5 0 -24 -15 -43 -32 -18 -18 -30 -27 -26 -21 5 9 2 11 -9 6 -13 -4 -14 -8 -4 -13 9 -6 7 -20 -10 -61 -17 -39 -21 -62 -17 -93 4 -23 8 -53 9 -68 1 -15 12 -35 25 -43 12 -9 19 -21 16 -27 -4 -6 -2 -8 3 -5 6 4 23 1 38 -7 14 -8 23 -16 18 -18 -4 -3 -2 -3 5 -2 6 2 19 1 27 -2 13 -5 13 -9 3 -23 -11 -14 -11 -14 3 -3 12 9 28 10 55 4 39 -8 151 4 140 16 -6 5 47 34 66 36 3 1 10 5 15 10 5 6 2 6 -7 1 -8 -5 -1 5 15 23 17 18 30 35 30 40 2 19 19 59 33 75 14 15 14 18 2 15 -11 -2 -15 7 -15 39 0 22 -3 39 -6 37 -10 -6 -19 24 -13 44 5 15 4 15 -6 2 -9 -12 -11 -10 -7 13 4 23 2 25 -10 15 -12 -10 -14 -9 -11 3 1 7 -1 15 -6 16 -20 3 -24 28 -8 48 11 13 8 12 -11 -4 -15 -14 -27 -19 -27 -12 0 20 -61 39 -142 43 -42 2 -72 1 -67 -3z m198 -52 c91 -60 120 -209 57 -291 -61 -80 -170 -116 -261 -86 -57 19 -120 82 -135 134 -24 87 36 206 129 257 55 29 154 23 210 -14z"/> <path d="M446 2231 c-3 -5 2 -15 12 -22 15 -12 16 -12 5 2 -7 9 -10 19 -6 22 3 4 4 7 0 7 -3 0 -8 -4 -11 -9z"/> <path d="M3880 2570 c-8 -5 -10 -10 -5 -10 6 0 17 5 25 10 8 5 11 10 5 10 -5 0 -17 -5 -25 -10z"/> <path d="M847 2499 c7 -7 15 -10 18 -7 3 3 -2 9 -12 12 -14 6 -15 5 -6 -5z"/> <path d="M3767 2409 c7 -7 15 -10 18 -7 3 3 -2 9 -12 12 -14 6 -15 5 -6 -5z"/> <path d="M4384 2402 c3 -5 0 -13 -6 -15 -9 -4 -10 -6 -1 -6 17 -1 25 16 12 25 -7 4 -9 3 -5 -4z"/> <path d="M1367 2193 c-3 -5 6 -9 20 -10 19 -1 22 1 12 8 -17 11 -26 11 -32 2z"/> <path d="M4608 2189 c-3 -8 4 -22 17 -31 17 -13 22 -13 22 -3 0 8 -4 12 -9 9 -4 -3 -12 5 -16 17 -6 16 -10 18 -14 8z"/> <path d="M4363 2175 c0 -7 6 -11 14 -8 7 3 13 6 13 8 0 2 -6 5 -13 8 -8 3 -14 -1 -14 -8z"/> <path d="M4247 2169 c7 -7 15 -10 18 -7 3 3 -2 9 -12 12 -14 6 -15 5 -6 -5z"/> <path d="M4435 2163 c-11 -2 -32 -9 -47 -14 -18 -8 -33 -7 -50 1 -22 11 -23 11 -3 -6 20 -16 20 -16 -2 -11 -13 3 -23 2 -23 -3 0 -8 -28 -17 -80 -27 -13 -2 -39 -11 -57 -19 -18 -9 -42 -13 -55 -9 -17 5 -19 4 -9 -3 11 -8 2 -12 -35 -18 -27 -4 -51 -10 -54 -15 -3 -5 -24 -10 -45 -13 -22 -3 -41 -10 -43 -15 -2 -5 -9 -8 -17 -5 -7 3 -16 1 -20 -5 -3 -6 -19 -11 -35 -11 -16 0 -32 -4 -35 -10 -3 -5 -13 -10 -21 -10 -8 0 -13 4 -9 9 3 5 0 13 -6 17 -8 4 -9 3 -5 -4 4 -7 2 -12 -4 -12 -6 0 -9 -4 -6 -9 3 -5 -2 -11 -12 -14 -9 -2 -24 -8 -33 -11 -10 -4 -23 0 -33 10 -17 16 -17 16 -14 -2 2 -15 -6 -21 -37 -29 -22 -6 -50 -16 -63 -23 -12 -7 -32 -10 -44 -6 -15 4 -18 3 -13 -6 6 -10 1 -11 -19 -6 -20 5 -26 4 -20 -5 5 -9 -1 -10 -20 -5 -17 4 -25 3 -22 -3 4 -5 -8 -13 -26 -16 -18 -4 -37 -10 -43 -13 -13 -8 -32 -12 -73 -16 -18 -2 -43 -13 -56 -25 l-24 -22 20 -37 c10 -20 31 -61 47 -89 16 -29 24 -50 20 -47 -5 3 -9 1 -9 -5 0 -5 4 -11 8 -13 5 -1 12 -16 16 -31 5 -21 4 -27 -5 -21 -8 5 -9 3 -5 -5 5 -7 11 -10 14 -6 6 5 42 -102 41 -120 -3 -31 2 -55 11 -50 7 4 7 -3 0 -20 -13 -33 -13 -44 0 -25 9 13 10 13 10 0 0 -8 7 -60 15 -115 8 -55 15 -171 15 -258 0 -177 5 -193 60 -185 17 3 30 2 30 -1 0 -3 74 -6 164 -5 91 0 163 -2 161 -5 -2 -3 61 -6 138 -7 78 0 256 -4 396 -8 199 -5 257 -4 269 6 9 7 13 8 10 3 -4 -6 2 -11 12 -11 11 0 16 5 12 15 -3 9 -1 12 6 7 7 -4 12 -2 12 3 0 6 6 11 14 11 8 0 24 12 35 26 12 15 25 23 32 18 7 -4 9 -3 6 4 -9 14 3 43 14 36 5 -3 8 0 7 7 -2 6 3 14 11 17 9 3 11 0 6 -8 -5 -8 -4 -11 3 -6 6 3 9 16 7 27 -2 11 -1 27 2 35 5 13 8 13 15 2 7 -9 8 -5 4 14 -6 29 2 61 13 53 4 -2 7 9 6 25 -1 23 1 27 11 19 9 -8 11 -5 7 10 -3 11 1 44 7 73 12 48 15 84 20 213 1 32 3 36 10 20 6 -13 9 -15 9 -5 1 8 -6 28 -14 44 -8 15 -15 42 -15 60 0 17 -5 51 -11 76 -7 25 -13 52 -14 60 -1 8 -7 28 -14 44 -6 16 -10 35 -7 42 3 8 1 16 -4 19 -6 4 -10 15 -10 26 0 11 -7 22 -15 25 -8 4 -13 9 -10 13 2 4 -3 20 -10 35 -8 16 -13 32 -10 36 3 4 -2 10 -10 14 -12 4 -13 11 -5 33 9 26 9 27 -5 9 -13 -18 -15 -18 -15 -3 0 10 -11 35 -25 57 -14 22 -23 40 -20 40 4 0 -1 10 -9 22 -20 28 -20 47 -1 68 13 15 12 16 -18 16 -20 -1 -31 3 -29 12 1 6 -4 11 -10 10 -7 -2 -12 4 -10 13 3 22 -23 45 -34 28 -5 -8 -11 -4 -21 12 -8 13 -12 17 -10 8 5 -14 1 -15 -31 -3 -37 13 -70 15 -107 7z m133 -42 c20 -10 47 -30 59 -43 35 -37 160 -303 197 -418 51 -159 60 -212 59 -360 0 -155 -20 -245 -79 -370 -56 -119 -93 -157 -175 -180 -15 -5 -220 -2 -455 6 -236 7 -481 14 -544 15 -63 1 -131 4 -151 6 l-36 5 5 98 c12 257 -57 612 -168 857 -26 57 -27 63 -12 75 15 12 16 11 3 -4 -12 -16 -11 -18 2 -18 13 0 362 105 962 290 210 65 271 73 333 41z m62 -2 c0 -5 -4 -9 -10 -9 -5 0 -10 7 -10 16 0 8 5 12 10 9 6 -3 10 -10 10 -16z m51 -76 c-12 -20 -14 -14 -5 12 4 9 9 14 11 11 3 -2 0 -13 -6 -23z m-1417 -309 c3 -8 2 -12 -4 -9 -6 3 -10 10 -10 16 0 14 7 11 14 -7z"/> <path d="M4510 2078 c0 -19 2 -20 10 -8 13 19 13 30 0 30 -5 0 -10 -10 -10 -22z"/> <path d="M4486 2004 c-9 -24 -7 -27 9 -10 17 17 19 26 6 26 -5 0 -12 -7 -15 -16z"/> <path d="M3960 1960 c-9 -6 -10 -10 -3 -10 6 0 15 5 18 10 8 12 4 12 -15 0z"/> <path d="M3708 1873 c7 -3 16 -2 19 1 4 3 -2 6 -13 5 -11 0 -14 -3 -6 -6z"/> <path d="M4377 1753 c-4 -3 -7 -11 -7 -17 0 -6 5 -5 12 2 6 6 9 14 7 17 -3 3 -9 2 -12 -2z"/> <path d="M4760 1701 c0 -6 4 -13 10 -16 6 -3 7 1 4 9 -7 18 -14 21 -14 7z"/> <path d="M4465 1520 c-4 -6 -13 -9 -21 -6 -9 3 -11 0 -7 -11 4 -10 2 -14 -4 -10 -7 5 -9 -1 -5 -15 3 -14 1 -19 -6 -14 -8 5 -10 2 -6 -8 3 -9 10 -16 14 -16 9 0 24 -49 21 -69 -1 -8 2 -10 10 -5 7 4 10 3 6 -3 -4 -6 -2 -25 4 -44 24 -76 0 -189 -39 -189 -8 0 -10 -5 -6 -12 5 -7 2 -9 -9 -5 -9 3 -17 1 -19 -4 -2 -6 -68 -15 -148 -20 -80 -5 -153 -11 -162 -13 -10 -2 -21 0 -24 5 -3 5 -10 9 -16 9 -6 0 -9 -3 -5 -6 3 -4 -3 -14 -14 -23 -40 -33 -26 -90 26 -111 19 -7 253 3 339 15 21 3 52 13 68 21 15 8 34 12 40 8 6 -4 8 -3 5 3 -3 5 8 22 25 38 40 38 68 84 68 113 0 12 6 22 14 22 11 0 12 8 5 40 -6 26 -6 48 1 60 13 24 13 39 -1 20 -7 -11 -8 -1 -5 35 4 32 3 41 -2 25 -8 -24 -9 -23 -15 11 -4 20 -4 44 -1 54 5 13 4 16 -4 11 -8 -4 -16 3 -22 21 -6 15 -13 35 -17 43 -3 8 -6 18 -5 21 0 3 -4 6 -11 7 -7 1 -24 4 -38 8 -16 3 -30 1 -34 -6z m81 -65 c14 -30 33 -91 42 -135 14 -66 14 -88 4 -136 -21 -102 -85 -171 -182 -194 -25 -6 -118 -13 -206 -17 -159 -6 -162 -6 -173 16 -16 29 -5 60 22 65 12 3 75 7 140 10 149 7 193 14 238 37 74 37 92 145 45 275 -37 102 -32 134 22 134 18 0 28 -11 48 -55z"/> <path d="M4144 1478 l-19 -23 23 19 c21 18 27 26 19 26 -2 0 -12 -10 -23 -22z"/> <path d="M4085 1440 c-3 -6 1 -7 9 -4 18 7 21 14 7 14 -6 0 -13 -4 -16 -10z"/> <path d="M3905 1340 c-3 -5 -1 -10 4 -10 6 0 11 5 11 10 0 6 -2 10 -4 10 -3 0 -8 -4 -11 -10z"/> <path d="M3628 1283 c17 -2 47 -2 65 0 17 2 3 4 -33 4 -36 0 -50 -2 -32 -4z"/> <path d="M4610 1141 c0 -6 4 -13 10 -16 6 -3 7 1 4 9 -7 18 -14 21 -14 7z"/> <path d="M3793 1097 c17 -14 16 -15 -6 -21 -19 -4 -23 -13 -25 -43 -1 -21 1 -43 6 -48 16 -23 61 -37 94 -31 18 3 38 7 45 8 7 1 10 5 7 10 -3 5 -1 15 5 22 22 26 -12 79 -54 88 -11 2 -19 10 -17 17 1 7 -2 10 -8 6 -6 -3 -8 -11 -4 -17 3 -5 -9 -2 -27 7 -24 11 -29 12 -16 2z m104 -53 c37 -51 -20 -91 -91 -64 -20 7 -26 17 -26 38 0 15 6 34 13 41 17 17 88 7 104 -15z"/> <path d="M3760 1090 c0 -5 5 -10 11 -10 5 0 7 5 4 10 -3 6 -8 10 -11 10 -2 0 -4 -4 -4 -10z"/> <path d="M3501 1054 c0 -11 3 -14 6 -6 3 7 2 16 -1 19 -3 4 -6 -2 -5 -13z"/> <path d="M4530 1016 c0 -2 7 -7 16 -10 8 -3 12 -2 9 4 -6 10 -25 14 -25 6z"/> <path d="M3491 974 c0 -11 3 -14 6 -6 3 7 2 16 -1 19 -3 4 -6 -2 -5 -13z"/> <path d="M3888 2143 c7 -3 16 -2 19 1 4 3 -2 6 -13 5 -11 0 -14 -3 -6 -6z"/> <path d="M3996 2091 c-4 -5 3 -7 14 -4 23 6 26 13 6 13 -8 0 -17 -4 -20 -9z"/> <path d="M4038 2063 c6 -2 18 -2 25 0 6 3 1 5 -13 5 -14 0 -19 -2 -12 -5z"/> <path d="M3318 1993 c7 -3 16 -2 19 1 4 3 -2 6 -13 5 -11 0 -14 -3 -6 -6z"/> <path d="M3348 1953 c7 -3 16 -2 19 1 4 3 -2 6 -13 5 -11 0 -14 -3 -6 -6z"/> <path d="M3544 1908 c10 -6 22 -6 26 -2 5 5 -3 10 -18 11 -22 1 -24 0 -8 -9z"/> <path d="M3488 1903 c7 -3 16 -2 19 1 4 3 -2 6 -13 5 -11 0 -14 -3 -6 -6z"/> <path d="M2838 1893 c6 -2 18 -2 25 0 6 3 1 5 -13 5 -14 0 -19 -2 -12 -5z"/> <path d="M3193 1833 c4 -3 1 -13 -6 -22 -10 -14 -10 -14 4 -4 9 7 20 9 25 5 4 -4 2 1 -5 11 -7 9 -16 17 -19 17 -3 0 -2 -3 1 -7z"/> <path d="M3037 1798 c2 -5 -6 -7 -19 -7 -13 1 -66 -6 -118 -15 -52 -10 -113 -19 -135 -22 -46 -6 -68 -28 -58 -58 4 -12 7 -29 7 -38 0 -9 4 -14 10 -11 5 3 7 -5 4 -20 -3 -15 -1 -24 3 -21 5 3 9 0 9 -6 0 -6 5 -8 11 -4 8 4 9 -1 4 -16 -5 -15 -4 -20 3 -16 7 4 16 -10 22 -35 7 -23 18 -49 26 -57 8 -8 13 -19 11 -26 -2 -6 3 -17 10 -25 8 -7 12 -20 9 -27 -3 -8 3 -29 13 -47 20 -36 36 -94 32 -116 -1 -8 2 -10 9 -6 9 5 10 1 5 -15 -5 -15 -4 -20 4 -16 6 4 11 1 11 -8 0 -8 -4 -18 -10 -21 -5 -3 -10 -14 -9 -23 0 -15 1 -15 8 1 5 14 10 7 18 -30 6 -26 11 -55 11 -63 -1 -8 2 -26 6 -39 6 -17 5 -22 -4 -16 -9 6 -9 3 -1 -14 12 -21 14 -203 4 -249 -5 -19 -8 -21 -22 -10 -11 9 -10 5 3 -10 11 -12 15 -22 11 -22 -4 0 -1 -8 8 -18 10 -10 15 -21 12 -24 -4 -3 29 2 72 12 43 10 105 22 138 26 33 4 62 9 65 9 3 1 26 5 53 9 80 14 85 27 86 224 0 92 -4 199 -10 237 -5 39 -11 81 -13 95 -1 14 -6 34 -9 45 -3 11 -9 34 -12 50 -8 51 -13 68 -33 129 -11 32 -19 68 -17 81 1 17 -2 22 -13 17 -10 -3 -13 -1 -8 6 3 6 2 13 -4 17 -6 4 -8 11 -4 16 3 6 -2 20 -13 31 -16 19 -16 21 -1 15 12 -4 15 -2 11 8 -3 8 -9 12 -14 9 -5 -3 -9 2 -9 11 0 9 -4 14 -9 11 -9 -6 -27 50 -23 67 2 5 -2 6 -7 3 -5 -4 -14 1 -19 11 -8 13 -24 17 -65 17 -30 1 -53 -2 -50 -6z m141 -110 c115 -263 172 -568 156 -835 l-6 -111 -122 -22 c-66 -12 -151 -28 -189 -35 l-67 -12 7 51 c13 86 7 295 -11 389 -28 148 -111 378 -197 550 -16 31 -26 57 -22 58 5 0 87 13 183 28 250 41 221 47 268 -61z"/> <path d="M3159 1295 c-46 -13 -103 -44 -95 -52 2 -2 19 5 37 15 36 20 64 28 139 41 l45 8 -40 0 c-22 0 -61 -5 -86 -12z"/> <path d="M2995 1220 c-56 -33 -55 -38 4 -14 22 8 42 22 45 30 3 8 4 14 3 13 -1 0 -24 -13 -52 -29z"/> <path d="M1400 1720 c11 -8 1 -9 -33 -5 -36 4 -46 2 -41 -7 5 -7 2 -9 -8 -5 -9 3 -21 0 -27 -6 -6 -6 -11 -8 -11 -3 0 4 -7 0 -16 -9 -9 -9 -23 -14 -30 -11 -7 3 -17 0 -21 -7 -5 -7 -16 -17 -27 -22 -10 -6 -18 -14 -17 -19 1 -4 -7 -16 -18 -25 -11 -10 -18 -21 -14 -25 3 -3 1 -6 -5 -6 -7 0 -12 -7 -12 -15 0 -8 -4 -15 -10 -15 -5 0 -10 -8 -10 -18 0 -10 -3 -22 -7 -26 -5 -4 -8 -11 -9 -14 -3 -36 -17 -91 -22 -88 -12 7 -1 -291 13 -354 3 -14 7 -38 9 -55 2 -16 7 -38 11 -47 5 -11 3 -18 -5 -18 -10 0 -10 -3 0 -15 6 -8 18 -35 26 -61 11 -38 11 -50 1 -63 -11 -14 -10 -14 5 -2 16 12 18 11 14 -18 -2 -17 0 -28 4 -26 9 5 24 -24 21 -41 0 -6 6 -17 14 -24 8 -7 15 -23 15 -36 0 -13 5 -24 11 -24 6 0 8 -7 5 -16 -3 -8 -2 -13 3 -10 11 7 20 -14 14 -31 -3 -9 -10 -10 -23 -3 -13 7 -21 6 -26 -2 -4 -7 -4 -10 1 -6 12 11 47 -12 41 -27 -3 -8 -1 -17 4 -20 4 -3 7 6 6 19 -2 16 1 23 10 19 7 -2 10 -11 7 -19 -3 -7 2 -17 11 -20 9 -3 16 -10 16 -16 0 -5 -4 -7 -8 -4 -5 3 -9 -1 -9 -8 0 -8 10 -12 24 -10 15 1 22 -2 20 -9 -3 -7 17 -32 42 -58 26 -25 50 -53 54 -62 4 -10 12 -14 22 -11 8 3 15 1 15 -5 0 -6 9 -11 21 -11 14 0 19 -5 16 -15 -4 -8 -1 -17 5 -21 7 -4 8 -3 4 4 -9 15 9 15 37 0 21 -10 21 -10 7 7 -14 17 -14 18 8 6 33 -18 117 -5 149 23 l26 23 -28 37 c-15 20 -36 41 -47 47 -10 5 -18 15 -17 22 0 9 2 9 6 0 2 -7 10 -13 16 -13 7 1 1 10 -12 20 -13 11 -19 20 -15 20 5 0 1 5 -9 11 -15 9 -16 13 -5 27 12 15 11 16 -4 4 -14 -11 -18 -10 -28 7 -6 12 -8 21 -5 21 2 0 -11 20 -30 45 -21 29 -32 52 -28 62 5 11 3 14 -6 8 -10 -6 -11 -2 -6 15 5 17 4 21 -6 15 -9 -6 -11 -2 -6 14 3 13 3 20 -1 17 -8 -9 -43 86 -37 102 2 6 0 12 -5 12 -6 0 -8 19 -5 43 4 32 3 38 -6 27 -8 -11 -9 -6 -4 23 3 20 2 37 -2 37 -4 0 -8 36 -7 80 1 107 8 115 89 89 72 -24 154 -22 201 3 40 21 47 22 39 6 -4 -7 2 -3 13 9 11 12 22 19 26 16 3 -4 6 -1 6 5 0 7 5 12 11 12 5 0 7 -6 3 -12 -6 -10 -5 -10 7 -1 8 7 14 26 13 45 0 18 5 44 13 57 9 13 10 21 5 17 -6 -3 -12 -3 -15 1 -2 5 -2 1 0 -7 2 -8 1 -11 -3 -7 -8 8 -32 69 -39 99 -2 9 -10 29 -19 46 -10 20 -12 32 -5 39 8 8 7 13 -2 18 -8 6 -10 4 -5 -6 4 -8 1 -6 -7 3 -8 10 -16 15 -19 12 -4 -3 -5 3 -5 13 1 11 -4 17 -13 15 -8 -2 -12 -1 -8 3 4 4 -6 21 -22 38 -21 22 -26 34 -17 39 8 5 6 8 -6 8 -10 0 -29 11 -43 25 -13 13 -33 29 -45 35 -11 6 -17 14 -15 18 3 5 -5 9 -17 9 -11 1 -25 9 -29 18 -5 8 -13 13 -18 10 -5 -3 -26 1 -46 10 -42 17 -56 19 -34 5z m89 -55 c128 -60 288 -293 294 -428 2 -40 1 -42 -51 -70 -70 -38 -140 -44 -236 -22 -74 18 -77 18 -97 -1 -20 -18 -21 -26 -16 -149 9 -240 92 -445 251 -621 l46 -52 -45 -12 c-172 -48 -326 89 -445 396 -66 171 -102 363 -103 549 -1 192 38 302 131 370 90 67 183 81 271 40z"/> <path d="M1266 1622 c-3 -5 1 -9 9 -9 8 0 12 4 9 9 -3 4 -7 8 -9 8 -2 0 -6 -4 -9 -8z"/> <path d="M1606 1453 c-6 -14 -5 -15 5 -6 7 7 10 15 7 18 -3 3 -9 -2 -12 -12z"/> <path d="M1430 396 c0 -2 8 -10 18 -17 15 -13 16 -12 3 4 -13 16 -21 21 -21 13z"/> <path d="M2058 1723 c7 -3 16 -2 19 1 4 3 -2 6 -13 5 -11 0 -14 -3 -6 -6z"/> <path d="M1656 1709 c2 -4 -3 -10 -11 -13 -12 -4 -13 -11 -7 -23 5 -10 7 -25 5 -33 -4 -13 -3 -13 6 0 10 13 13 13 21 -1 23 -39 78 -97 86 -91 5 4 2 -2 -6 -12 -10 -13 -10 -17 -2 -12 12 7 17 -6 5 -17 -10 -10 -32 13 -27 27 3 7 -3 19 -13 27 -16 13 -17 12 -5 -3 8 -9 11 -21 8 -26 -6 -10 20 -36 38 -38 39 -4 39 -4 26 -19 -11 -13 -10 -14 6 -8 17 6 17 5 5 -10 -12 -15 -12 -17 0 -12 9 3 20 -9 33 -37 22 -51 48 -144 48 -175 0 -13 3 -21 7 -18 12 7 13 -6 17 -359 3 -251 0 -343 -8 -354 -7 -8 -13 -24 -15 -35 -6 -44 -14 -68 -21 -63 -4 2 -8 -8 -7 -23 0 -20 4 -27 14 -23 9 3 12 1 8 -6 -5 -7 4 -9 29 -7 33 3 62 15 35 15 -7 0 -9 4 -6 10 3 5 19 10 34 10 15 0 33 6 40 13 11 9 12 9 7 0 -5 -9 -2 -11 8 -7 9 3 13 10 10 15 -3 5 13 9 36 9 23 0 39 4 36 9 -3 5 14 12 39 15 24 4 47 12 51 17 3 6 17 8 30 5 13 -4 24 -3 24 2 0 7 23 16 120 48 9 3 7 -1 -4 -10 -11 -9 -15 -16 -9 -16 6 0 16 7 23 15 7 9 19 14 27 11 8 -3 12 -2 8 3 -3 5 9 14 27 19 97 29 159 42 170 36 6 -4 8 -3 4 4 -6 11 61 38 71 28 3 -3 12 2 20 10 8 8 18 12 23 9 4 -3 25 2 45 11 21 8 50 16 66 16 17 1 26 5 22 11 -4 7 1 8 13 4 18 -7 18 -6 1 7 -16 12 -16 15 -2 29 18 19 20 31 3 21 -7 -4 -5 2 5 13 9 11 15 22 12 25 -3 2 -7 72 -10 154 -7 203 -9 223 -18 217 -4 -2 -5 8 -2 24 5 19 4 24 -3 14 -7 -9 -11 1 -17 35 -4 26 -16 71 -27 98 -11 28 -20 65 -20 81 0 17 -2 24 -5 17 -3 -8 -15 8 -28 35 -13 28 -18 51 -12 54 5 4 2 11 -7 16 -9 5 -18 19 -20 30 -3 12 -9 30 -15 41 -7 13 -7 22 1 30 7 7 5 10 -8 9 -10 -1 -19 5 -19 13 0 8 -11 32 -25 52 -21 32 -30 38 -60 37 -19 -1 -238 0 -487 2 -248 2 -449 1 -447 -2z m798 -28 l170 -6 59 -130 c68 -153 128 -326 153 -445 18 -92 24 -279 11 -371 l-8 -56 -137 -42 c-75 -23 -276 -84 -447 -136 -170 -52 -329 -101 -352 -109 -30 -11 -44 -12 -49 -4 -4 6 -3 8 4 4 15 -9 47 82 61 171 16 106 14 488 -4 606 -17 116 -53 229 -102 317 -38 70 -124 184 -151 200 -18 11 491 11 792 1z m-549 -1321 c3 -5 -1 -10 -10 -10 -9 0 -13 5 -10 10 3 6 8 10 10 10 2 0 7 -4 10 -10z"/> <path d="M1820 1591 c0 -6 4 -13 10 -16 6 -3 7 1 4 9 -7 18 -14 21 -14 7z"/> <path d="M1971 1064 c0 -11 3 -14 6 -6 3 7 2 16 -1 19 -3 4 -6 -2 -5 -13z"/> <path d="M2775 1070 c-3 -6 1 -7 9 -4 18 7 21 14 7 14 -6 0 -13 -4 -16 -10z"/> <path d="M2600 980 c-9 -6 -10 -10 -3 -10 6 0 15 5 18 10 8 12 4 12 -15 0z"/> <path d="M2535 960 c-13 -6 -15 -9 -5 -9 8 0 22 4 30 9 18 12 2 12 -25 0z"/> <path d="M2093 893 c9 -2 25 -2 35 0 9 3 1 5 -18 5 -19 0 -27 -2 -17 -5z"/> <path d="M2178 893 c12 -2 32 -2 45 0 12 2 2 4 -23 4 -25 0 -35 -2 -22 -4z"/> <path d="M1981 624 c0 -11 3 -14 6 -6 3 7 2 16 -1 19 -3 4 -6 -2 -5 -13z"/> <path d="M2198 523 c7 -3 16 -2 19 1 4 3 -2 6 -13 5 -11 0 -14 -3 -6 -6z"/> <path d="M1149 1643 c-13 -16 -12 -17 4 -4 9 7 17 15 17 17 0 8 -8 3 -21 -13z"/> <path d="M4901 1644 c0 -11 3 -14 6 -6 3 7 2 16 -1 19 -3 4 -6 -2 -5 -13z"/> <path d="M3296 1563 c-6 -14 -5 -15 5 -6 7 7 10 15 7 18 -3 3 -9 -2 -12 -12z"/> <path d="M820 1409 c0 -5 5 -7 10 -4 6 3 10 8 10 11 0 2 -4 4 -10 4 -5 0 -10 -5 -10 -11z"/> <path d="M315 1389 c-4 -6 -5 -12 -2 -15 2 -3 7 2 10 11 7 17 1 20 -8 4z"/> <path d="M1030 1381 c0 -6 4 -13 10 -16 6 -3 7 1 4 9 -7 18 -14 21 -14 7z"/> <path d="M2800 1381 c0 -6 4 -13 10 -16 6 -3 7 1 4 9 -7 18 -14 21 -14 7z"/> <path d="M4936 1289 c-8 -42 0 -50 9 -9 4 17 5 34 2 36 -2 3 -7 -10 -11 -27z"/> <path d="M103 1253 c0 -9 4 -10 14 -2 7 6 13 12 13 14 0 1 -6 2 -13 2 -8 0 -14 -6 -14 -14z"/> <path d="M1011 1244 c0 -11 3 -14 6 -6 3 7 2 16 -1 19 -3 4 -6 -2 -5 -13z"/> <path d="M2850 1215 c0 -5 5 -17 10 -25 5 -8 10 -10 10 -5 0 6 -5 17 -10 25 -5 8 -10 11 -10 5z"/> <path d="M1816 1152 c-3 -5 1 -15 8 -21 11 -10 14 -9 12 3 -3 21 -13 29 -20 18z"/> <path d="M1765 1130 c-3 -6 1 -7 9 -4 18 7 21 14 7 14 -6 0 -13 -4 -16 -10z"/> <path d="M699 1071 c8 -5 10 -14 6 -22 -6 -11 -5 -11 5 -2 14 12 6 33 -13 33 -8 0 -7 -3 2 -9z"/> <path d="M243 1045 c0 -8 4 -12 9 -9 5 3 6 10 3 15 -9 13 -12 11 -12 -6z"/> <path d="M579 863 c-13 -16 -12 -17 4 -4 9 7 17 15 17 17 0 8 -8 3 -21 -13z"/> <path d="M4829 843 c-13 -16 -12 -17 4 -4 16 13 21 21 13 21 -2 0 -10 -8 -17 -17z"/> <path d="M4863 735 c0 -8 4 -12 9 -9 5 3 6 10 3 15 -9 13 -12 11 -12 -6z"/> <path d="M1505 631 c-3 -5 -2 -12 3 -15 5 -3 9 1 9 9 0 17 -3 19 -12 6z"/> <path d="M2570 526 c4 -4 16 -4 26 2 16 9 14 10 -8 9 -15 -1 -23 -6 -18 -11z"/> <path d="M2428 513 c7 -3 16 -2 19 1 4 3 -2 6 -13 5 -11 0 -14 -3 -6 -6z"/> <path d="M1222 471 c-11 -7 -11 -9 0 -14 9 -3 15 1 15 9 0 8 -1 14 -1 14 -1 0 -7 -4 -14 -9z"/> <path d="M1665 469 c-4 -6 -5 -12 -2 -15 2 -3 7 2 10 11 7 17 1 20 -8 4z"/> <path d="M1630 456 c0 -2 8 -10 18 -17 15 -13 16 -12 3 4 -13 16 -21 21 -21 13z"/> <path d="M1765 301 c-6 -11 13 -26 22 -17 4 3 0 6 -8 6 -11 0 -11 2 1 10 9 6 10 10 3 10 -6 0 -14 -4 -18 -9z"/> </g> </svg>